<svg width="39" height="39" viewBox="0 0 39 39" fill="none" xmlns="http://www.w3.org/2000/svg">
<path d="M14.6318 6.97672C18.1266 0.923325 25.8672 -1.15071 31.9206 2.34422C37.9739 5.83914 40.048 13.5796 36.553 19.6329L36.0842 20.445C35.6959 21.1175 34.8359 21.348 34.1633 20.9596L25.6157 16.0246L21.1665 23.8106C24.7382 24.2334 27.8969 26.079 30.2472 28.713C29.2622 28.8729 28.3875 29.4195 27.8108 30.2167C25.626 27.9511 22.7235 26.5308 19.5996 26.5308C16.4757 26.5308 13.5732 27.9511 11.3885 30.2167C10.8109 29.4183 9.93528 28.8725 8.95208 28.7128C11.2775 26.1067 14.3941 24.2726 17.9192 23.8245L23.1799 14.6183L14.6777 9.70959C14.0051 9.32126 13.7747 8.46122 14.163 7.78862L14.6318 6.97672ZM17.3114 7.98251L20.9976 10.1108C21.999 8.57529 23.0117 7.31149 24.2667 6.17042C25.252 5.27441 26.3622 4.47662 27.6906 3.6846C23.7621 2.82681 19.575 4.45438 17.3114 7.98251ZM28.2051 14.272C29.245 12.4026 29.7435 10.9169 29.923 9.48144C30.0685 8.31673 30.0122 7.12687 29.803 5.71142C28.2689 6.57455 27.1229 7.37464 26.1587 8.25131C25.1595 9.15992 24.318 10.1846 23.4374 11.5193L28.2051 14.272ZM30.6411 15.6784L34.3422 17.8153C36.2982 14.0282 35.5579 9.50124 32.7364 6.52886C32.8427 7.65097 32.8508 8.73384 32.7137 9.83029C32.4771 11.7235 31.8209 13.5659 30.6411 15.6784ZM9.68845 31.9841C9.49531 31.3831 8.92529 30.9845 8.29447 31.0093C7.66364 31.034 7.12662 31.4761 6.9812 32.0904C6.58589 33.7603 5.84345 34.647 5.0284 35.1543C4.16793 35.6898 3.05911 35.9056 1.78711 35.9056C1.01047 35.9056 0.380859 36.5353 0.380859 37.3119C0.380859 38.0887 1.01047 38.7181 1.78711 38.7181C3.32761 38.7181 5.03129 38.4654 6.51457 37.5421C7.28817 37.0606 7.9603 36.4228 8.50583 35.6133C11.4148 39.1117 16.7736 39.0941 19.5996 35.559C22.4751 39.1561 27.9735 39.1113 30.8445 35.4256C32.4336 37.5052 34.9137 38.7181 37.4121 38.7181C38.1887 38.7181 38.8184 38.0887 38.8184 37.3119C38.8184 36.5353 38.1887 35.9056 37.4121 35.9056C35.1938 35.9056 32.9412 34.4111 32.1927 31.9978C32.011 31.4118 31.4702 31.0113 30.8567 31.0081C30.2432 31.005 29.6985 31.4 29.5109 31.9841C28.0409 36.5585 22.3679 36.4824 20.9337 32.1798C20.7422 31.6055 20.2049 31.2181 19.5996 31.2181C18.9944 31.2181 18.457 31.6055 18.2655 32.1798C16.8314 36.4824 11.1583 36.5585 9.68845 31.9841Z" fill="#002422"/>
</svg>
