<svg width="38" height="33" viewBox="0 0 38 33" fill="none" xmlns="http://www.w3.org/2000/svg">
<path d="M8.95605 0.5H28.6436C31.3857 0.5 33.6281 2.64069 33.7904 5.34215L33.7998 5.65625L33.8009 11.9444C35.8563 12.5262 37.3899 14.351 37.538 16.5553L37.5498 16.9062V30.9688C37.5498 31.7454 36.9202 32.375 36.1436 32.375C35.4316 32.375 34.8432 31.8459 34.7501 31.1596L34.7373 30.9688V26.75H2.8623V30.9688C2.8623 31.6807 2.33327 32.2691 1.64687 32.3623L1.45605 32.375C0.744117 32.375 0.155761 31.8459 0.0626484 31.1596L0.0498047 30.9688V16.9062C0.0498047 14.5458 1.63598 12.5557 3.80063 11.9439L3.7998 5.65625C3.7998 2.91401 5.94049 0.67175 8.64195 0.509413L8.95605 0.5ZM32.3936 14.5625H5.20605C3.99254 14.5625 2.99444 15.4848 2.8744 16.6666L2.8623 16.9062V23.9375H34.7373V16.9062C34.7373 15.6927 33.815 14.6947 32.6332 14.5747L32.3936 14.5625ZM28.6436 3.3125H8.95605C7.74254 3.3125 6.74444 4.23476 6.6244 5.41661L6.6123 5.65625V11.75H9.4248C9.4248 10.7145 10.2643 9.875 11.2998 9.875H15.0498C16.0113 9.875 16.8039 10.5988 16.9122 11.5313L16.9248 11.75H20.6748C20.6748 10.7145 21.5142 9.875 22.5498 9.875H26.2998C27.2613 9.875 28.0539 10.5988 28.1622 11.5313L28.1748 11.75H30.9873V5.65625C30.9873 4.44273 30.065 3.44463 28.8832 3.32459L28.6436 3.3125Z" fill="#002422"/>
</svg>
