<svg width="38" height="30" viewBox="0 0 38 30" fill="none" xmlns="http://www.w3.org/2000/svg">
<path d="M6.77639 4.29956C7.3882 2.05627 9.42574 0.5 11.7509 0.5H20.8087C22.6327 0.5 24.321 1.46362 25.2485 3.03414L29.9514 10.9971L34.043 12.0196C36.3386 12.5932 37.9492 14.6557 37.9492 17.0219V20.1875C37.9492 22.2545 36.7331 24.0373 34.9773 24.8596C34.3481 27.5549 31.9299 29.5625 29.043 29.5625C26.3317 29.5625 24.0339 27.7917 23.243 25.3438H14.2178C13.427 27.7917 11.1293 29.5625 8.41797 29.5625C5.3002 29.5625 2.72929 27.221 2.36774 24.2008C1.19759 23.2556 0.449219 21.8088 0.449219 20.1875V15.9688C0.449219 13.3293 2.43254 11.1529 4.99023 10.8488L6.77639 4.29956ZM23.0208 22.5312C23.4718 19.6109 25.9963 17.375 29.043 17.375C31.6908 17.375 33.9444 19.0638 34.785 21.4231C35.0079 21.0644 35.1367 20.6411 35.1367 20.1875V17.0219C35.1367 15.9464 34.4047 15.0089 33.3611 14.7481L28.8667 13.625H5.60547C4.31104 13.625 3.26172 14.6742 3.26172 15.9688V20.1875L3.26192 20.2194C4.34132 18.5101 6.24708 17.375 8.41797 17.375C11.4646 17.375 13.9891 19.6109 14.4401 22.5312H23.0208ZM17.3242 10.8125H26.576L22.8268 4.46437C22.4053 3.75052 21.6378 3.3125 20.8087 3.3125H17.3242V10.8125ZM14.5117 3.3125H11.7509C10.694 3.3125 9.76787 4.0199 9.48979 5.03956L7.91536 10.8125H14.5117V3.3125ZM8.41797 20.1875C6.60578 20.1875 5.13672 21.6566 5.13672 23.4688C5.13672 25.2809 6.60578 26.75 8.41797 26.75C10.2302 26.75 11.6992 25.2809 11.6992 23.4688C11.6992 21.6566 10.2302 20.1875 8.41797 20.1875ZM25.7617 23.4688C25.7617 25.2809 27.2308 26.75 29.043 26.75C30.8552 26.75 32.3242 25.2809 32.3242 23.4688C32.3242 21.6566 30.8552 20.1875 29.043 20.1875C27.2308 20.1875 25.7617 21.6566 25.7617 23.4688Z" fill="#002422"/>
</svg>
