<svg width="39" height="33" viewBox="0 0 39 33" fill="none" xmlns="http://www.w3.org/2000/svg">
<path d="M29.7687 1.03688C29.2195 0.487708 28.3293 0.487708 27.7801 1.03688C27.2309 1.58605 27.2309 2.47645 27.7801 3.02561L33.3481 8.59375H24.0869C20.7215 8.59375 17.9932 11.322 17.9932 14.6875V20.3125C17.9932 21.8534 16.9312 23.1462 15.4991 23.4987C14.8037 20.0761 11.7774 17.5 8.14941 17.5C4.00728 17.5 0.649414 20.8579 0.649414 25C0.649414 29.1421 4.00728 32.5 8.14941 32.5C11.8299 32.5 14.8912 29.8489 15.5279 26.3521C18.5075 25.9534 20.8057 23.4014 20.8057 20.3125V14.6875C20.8057 12.8753 22.2747 11.4062 24.0869 11.4062H33.3481L27.7801 16.9744C27.2309 17.5236 27.2309 18.4139 27.7801 18.9631C28.3293 19.5122 29.2195 19.5122 29.7687 18.9631L37.7375 10.9944C38.2867 10.4452 38.2867 9.5548 37.7375 9.00563L29.7687 1.03688ZM3.46191 25C3.46191 22.4112 5.56058 20.3125 8.14941 20.3125C10.7382 20.3125 12.8369 22.4112 12.8369 25C12.8369 27.5888 10.7382 29.6875 8.14941 29.6875C5.56058 29.6875 3.46191 27.5888 3.46191 25Z" fill="#002422"/>
</svg>
