<svg width="32" height="39" viewBox="0 0 32 39" fill="none" xmlns="http://www.w3.org/2000/svg">
<path d="M0.486275 3.98694C0.646119 2.13137 2.20494 0.75 4.03413 0.75C4.87981 0.75 5.65723 1.04235 6.27082 1.5315C6.90455 1.04154 7.69947 0.75 8.5625 0.75C9.42552 0.75 10.2205 1.04154 10.8542 1.5315C11.4678 1.04235 12.2452 0.75 13.0909 0.75C14.9201 0.75 16.4789 2.13137 16.6387 3.98694C16.7962 5.81522 17 8.64221 17 11.0625C17 14.1303 15.3618 16.8142 12.9193 18.2893C12.5033 18.5406 12.3961 18.8501 12.4068 19.0125C12.6437 22.6388 13.25 32.0469 13.25 33.5578C13.25 36.1466 11.1513 38.2453 8.5625 38.2453C5.97367 38.2453 3.875 36.1466 3.875 33.5578C3.875 32.0469 4.48128 22.6388 4.71824 19.0125C4.72886 18.8501 4.62166 18.5406 4.20566 18.2893C1.76313 16.8142 0.125 14.1303 0.125 11.0625C0.125 8.64221 0.328794 5.81522 0.486275 3.98694ZM12.3125 10.5938C12.3125 11.3704 11.6829 12 10.9062 12C10.1296 12 9.5 11.3704 9.5 10.5938V4.5C9.5 3.98224 9.08026 3.5625 8.5625 3.5625C8.04474 3.5625 7.625 3.98224 7.625 4.5V10.5938C7.625 11.3704 6.99539 12 6.21875 12C5.44211 12 4.8125 11.3704 4.8125 10.5938V4.34087C4.8125 3.91099 4.46401 3.5625 4.03413 3.5625C3.63131 3.5625 3.32011 3.86012 3.28839 4.22831C3.13256 6.03744 2.9375 8.7669 2.9375 11.0625C2.9375 13.105 4.02519 14.8947 5.65966 15.8818C6.68163 16.4991 7.62369 17.682 7.52476 19.1959C7.28206 22.9099 6.6875 32.1681 6.6875 33.5578C6.6875 34.5934 7.52698 35.4328 8.5625 35.4328C9.59803 35.4328 10.4375 34.5934 10.4375 33.5578C10.4375 32.1681 9.84294 22.9099 9.60024 19.1959C9.50131 17.682 10.4434 16.4991 11.4653 15.8818C13.0998 14.8947 14.1875 13.105 14.1875 11.0625C14.1875 8.7669 13.9925 6.03744 13.8367 4.22831C13.8048 3.86012 13.4937 3.5625 13.0909 3.5625C12.661 3.5625 12.3125 3.91099 12.3125 4.34087V10.5938ZM18.875 11.5312C18.875 5.57692 23.702 0.75 29.6562 0.75C30.4329 0.75 31.0625 1.37961 31.0625 2.15625V18.0938C31.0625 18.6894 31.2618 21.6463 31.4836 24.9219L31.4941 25.0772C31.7364 28.6554 32 32.5464 32 33.5578C32 36.1466 29.9013 38.2453 27.3125 38.2453C24.7237 38.2453 22.625 36.1466 22.625 33.5578C22.625 32.5929 22.8646 28.6603 23.0968 25.0558C23.2139 23.2344 23.3313 21.4699 23.4193 20.1609L23.4637 19.5H22.1562C20.3441 19.5 18.875 18.0309 18.875 16.2188V11.5312ZM26.3716 18.1903L26.3315 18.7792C26.3058 19.1557 26.2693 19.6957 26.2254 20.3494C26.1374 21.6568 26.0204 23.4186 25.9032 25.2366C25.6666 28.9112 25.4375 32.7105 25.4375 33.5578C25.4375 34.5934 26.2769 35.4328 27.3125 35.4328C28.3481 35.4328 29.1875 34.5934 29.1875 33.5578C29.1875 32.6571 28.9288 28.8214 28.6775 25.1119L28.6644 24.9176C28.4534 21.8047 28.25 18.8004 28.25 18.0938V3.68619C24.5197 4.35037 21.6875 7.61006 21.6875 11.5312V16.2188C21.6875 16.4777 21.8973 16.6875 22.1562 16.6875H24.9688C25.3584 16.6875 25.7308 16.8491 25.9966 17.1341C26.2625 17.4189 26.3984 17.8014 26.3716 18.1903Z" fill="#002422"/>
</svg>
