<svg width="20" height="20" viewBox="0 0 20 20" fill="none" xmlns="http://www.w3.org/2000/svg">
<path d="M5.99993 14C6.55222 14 6.99993 13.5523 6.99993 13C6.99993 12.4477 6.55222 12 5.99993 12C5.44765 12 4.99993 12.4477 4.99993 13C4.99993 13.5523 5.44765 14 5.99993 14ZM14.9996 13C14.9996 13.5523 14.5519 14 13.9996 14C13.4474 14 12.9996 13.5523 12.9996 13C12.9996 12.4477 13.4474 12 13.9996 12C14.5519 12 14.9996 12.4477 14.9996 13ZM8.74994 3C8.33574 3 7.99993 3.33579 7.99993 3.75C7.99993 4.16421 8.33574 4.5 8.74994 4.5H11.2499C11.6641 4.5 11.9999 4.16421 11.9999 3.75C11.9999 3.33579 11.6641 3 11.2499 3H8.74994ZM5.74993 0C3.67886 0 1.99993 1.67893 1.99993 3.75V7.5H0.749756C0.335536 7.5 -0.000244141 7.83579 -0.000244141 8.25C-0.000244141 8.6642 0.335536 9 0.749756 9H1.99993V17.75C1.99993 18.7165 2.78343 19.5 3.74993 19.5H5.24993C6.21643 19.5 6.99993 18.7165 6.99993 17.75V16.5H12.9999V17.75C12.9999 18.7165 13.7834 19.5 14.7499 19.5H16.2499C17.2164 19.5 17.9999 18.7165 17.9999 17.75V9H19.2272C19.6414 9 19.9772 8.6642 19.9772 8.25C19.9772 7.83579 19.6414 7.5 19.2272 7.5H17.9999V3.75C17.9999 1.67893 16.321 0 14.2499 0H5.74993ZM16.4999 16.5V17.75C16.4999 17.8881 16.388 18 16.2499 18H14.7499C14.6118 18 14.4999 17.8881 14.4999 17.75V16.5H16.4999ZM16.4999 15H3.49993V11H16.4999V15ZM3.49993 17.75V16.5H5.49993V17.75C5.49993 17.8881 5.388 18 5.24993 18H3.74993C3.61186 18 3.49993 17.8881 3.49993 17.75ZM3.49993 3.75C3.49993 2.50736 4.50729 1.5 5.74993 1.5H14.2499C15.4925 1.5 16.4999 2.50736 16.4999 3.75V9.5H3.49993V3.75Z" fill="#6B7280"/>
</svg>
