<svg width="20" height="16" viewBox="0 0 20 16" fill="none" xmlns="http://www.w3.org/2000/svg">
<path d="M3.37449 2.02643C3.70079 0.83001 4.78748 0 6.02759 0H10.8584C11.8312 0 12.7316 0.51393 13.2263 1.35154L15.7345 5.59844L17.9167 6.1438C19.141 6.4497 20 7.5497 20 8.8117V10.5C20 11.6024 19.3514 12.5532 18.415 12.9918C18.0794 14.4293 16.7897 15.5 15.25 15.5C13.804 15.5 12.5785 14.5556 12.1567 13.25H7.34325C6.92147 14.5556 5.69602 15.5 4.25 15.5C2.58719 15.5 1.21604 14.2512 1.02321 12.6404C0.39913 12.1363 0 11.3647 0 10.5V8.25C0 6.8423 1.05777 5.68156 2.42187 5.51937L3.37449 2.02643ZM12.0382 11.75C12.2787 10.1925 13.6251 9 15.25 9C16.6622 9 17.8641 9.9007 18.3124 11.159C18.4313 10.9677 18.5 10.7419 18.5 10.5V8.8117C18.5 8.2381 18.1096 7.7381 17.553 7.599L15.156 7H2.75C2.05964 7 1.5 7.5596 1.5 8.25V10.5L1.50011 10.517C2.07579 9.6054 3.09219 9 4.25 9C5.87489 9 7.22127 10.1925 7.46178 11.75H12.0382ZM9 5.5H13.9343L11.9347 2.11433C11.7099 1.73361 11.3006 1.5 10.8584 1.5H9V5.5ZM7.5 1.5H6.02759C5.4639 1.5 4.96995 1.87728 4.82164 2.4211L3.98194 5.5H7.5V1.5ZM4.25 10.5C3.2835 10.5 2.5 11.2835 2.5 12.25C2.5 13.2165 3.2835 14 4.25 14C5.2165 14 6 13.2165 6 12.25C6 11.2835 5.2165 10.5 4.25 10.5ZM13.5 12.25C13.5 13.2165 14.2835 14 15.25 14C16.2165 14 17 13.2165 17 12.25C17 11.2835 16.2165 10.5 15.25 10.5C14.2835 10.5 13.5 11.2835 13.5 12.25Z" fill="#6B7280"/>
</svg>
