<svg width="16" height="16" viewBox="0 0 16 16" fill="none" xmlns="http://www.w3.org/2000/svg">
<path d="M14.4167 11.2807V13.2807C14.4175 13.4664 14.3794 13.6502 14.305 13.8203C14.2307 13.9904 14.1216 14.1431 13.9848 14.2686C13.8479 14.3941 13.6864 14.4897 13.5105 14.5492C13.3347 14.6087 13.1483 14.6308 12.9634 14.614C10.9119 14.3911 8.94137 13.6901 7.21004 12.5674C5.59926 11.5438 4.23359 10.1782 3.21004 8.56738C2.08336 6.82819 1.3822 4.84805 1.16337 2.78738C1.14671 2.60303 1.16862 2.41722 1.2277 2.2418C1.28679 2.06637 1.38175 1.90518 1.50655 1.76846C1.63134 1.63175 1.78324 1.52252 1.95256 1.44773C2.12189 1.37294 2.30493 1.33422 2.49004 1.33405H4.49004C4.81357 1.33086 5.12723 1.44543 5.37254 1.6564C5.61786 1.86737 5.77809 2.16035 5.82337 2.48072C5.90779 3.12076 6.06434 3.7492 6.29004 4.35405C6.37973 4.59266 6.39914 4.85199 6.34597 5.1013C6.2928 5.35061 6.16928 5.57946 5.99004 5.76072L5.14337 6.60738C6.09241 8.27641 7.47434 9.65835 9.14337 10.6074L9.99004 9.76072C10.1713 9.58147 10.4001 9.45795 10.6494 9.40478C10.8988 9.35161 11.1581 9.37102 11.3967 9.46072C12.0016 9.68642 12.63 9.84297 13.27 9.92738C13.5939 9.97307 13.8896 10.1362 14.1011 10.3857C14.3125 10.6352 14.4248 10.9538 14.4167 11.2807Z" stroke="white" stroke-width="1.6" stroke-linecap="round" stroke-linejoin="round"/>
</svg>
