<svg width="21" height="20" viewBox="0 0 21 20" fill="none" xmlns="http://www.w3.org/2000/svg">
<path d="M0.75 20L2.15583 14.8642C1.28833 13.3608 0.8325 11.6567 0.833333 9.90917C0.835833 4.44583 5.28166 0 10.7441 0C13.395 0.000833333 15.8833 1.03333 17.755 2.90667C19.6258 4.78 20.6558 7.27 20.655 9.91833C20.6525 15.3825 16.2066 19.8283 10.7441 19.8283C9.08581 19.8275 7.45165 19.4117 6.00415 18.6217L0.75 20ZM6.24749 16.8275C7.64415 17.6567 8.97748 18.1533 10.7408 18.1542C15.2808 18.1542 18.9791 14.4592 18.9816 9.91667C18.9833 5.365 15.3025 1.675 10.7475 1.67333C6.20415 1.67333 2.50833 5.36833 2.50666 9.91C2.50583 11.7642 3.04916 13.1525 3.96166 14.605L3.12916 17.645L6.24749 16.8275ZM15.7366 12.2742C15.675 12.1708 15.51 12.1092 15.2616 11.985C15.0141 11.8608 13.7966 11.2617 13.5691 11.1792C13.3425 11.0967 13.1775 11.055 13.0116 11.3033C12.8466 11.5508 12.3716 12.1092 12.2275 12.2742C12.0833 12.4392 11.9383 12.46 11.6908 12.3358C11.4433 12.2117 10.645 11.9508 9.69915 11.1067C8.96331 10.45 8.46582 9.63917 8.32165 9.39083C8.17748 9.14333 8.30665 9.00917 8.42998 8.88583C8.54165 8.775 8.67748 8.59667 8.80165 8.45167C8.92748 8.30833 8.96831 8.205 9.05165 8.03917C9.13415 7.87417 9.09331 7.72917 9.03082 7.605C8.96832 7.48167 8.47332 6.2625 8.26748 5.76667C8.06582 5.28417 7.86165 5.34917 7.70998 5.34167L7.23499 5.33333C7.06999 5.33333 6.80165 5.395 6.57499 5.64333C6.34832 5.89167 5.70832 6.49 5.70832 7.70917C5.70832 8.92833 6.59582 10.1058 6.71915 10.2708C6.84332 10.4358 8.46498 12.9375 10.9491 14.01C11.54 14.265 12.0016 14.4175 12.3608 14.5317C12.9541 14.72 13.4941 14.6933 13.9208 14.63C14.3966 14.5592 15.3858 14.0308 15.5925 13.4525C15.7991 12.8733 15.7991 12.3775 15.7366 12.2742Z" fill="#FDFFFC"/>
</svg>
