<svg width="16" height="12" viewBox="0 0 16 12" fill="none" xmlns="http://www.w3.org/2000/svg">
<path d="M4.72407 2.16305C5.11038 0.87534 6.31013 0 7.6464 0C9.2973 0 10.6665 1.33717 10.6665 3.00001C10.6665 4.6569 9.32333 6 7.6665 6H0.729004C0.418346 6 0.166504 5.74815 0.166504 5.4375C0.166504 5.12685 0.418346 4.875 0.729004 4.875H7.6665C8.70203 4.875 9.5415 4.03554 9.5415 3.00001C9.5415 1.97045 8.688 1.125 7.6464 1.125C6.79883 1.125 6.04286 1.6822 5.80162 2.48632L5.76778 2.59913C5.67852 2.89669 5.36493 3.06554 5.06737 2.97628C4.76981 2.88701 4.60096 2.57342 4.69023 2.27587L4.72407 2.16305ZM10.8829 6.0096C11.1809 5.1156 12.0207 4.5 12.9695 4.5C14.1827 4.5 15.1663 5.48355 15.1663 6.69682V6.75C15.1663 7.9926 14.1589 9 12.9163 9H11.9416C12.0854 9.28125 12.1665 9.59992 12.1665 9.9375C12.1665 11.0766 11.2431 12 10.104 12H10.0029C9.27735 12 8.61398 11.5906 8.2887 10.9421C8.14943 10.6645 8.26163 10.3264 8.53928 10.1871C8.817 10.0478 9.15503 10.16 9.2943 10.4377C9.42878 10.7058 9.70298 10.875 10.0029 10.875H10.104C10.6218 10.875 11.0415 10.4553 11.0415 9.9375C11.0415 9.4197 10.6218 9 10.104 9H7.854H7.85115H0.729004C0.418346 9 0.166504 8.74815 0.166504 8.4375C0.166504 8.12685 0.418346 7.875 0.729004 7.875H12.9163C13.5376 7.875 14.0413 7.3713 14.0413 6.75V6.69682C14.0413 6.10485 13.5614 5.625 12.9695 5.625C12.5113 5.625 12.0971 5.9247 11.9501 6.3654C11.8519 6.66007 11.5334 6.81937 11.2386 6.72112C10.9439 6.62287 10.7846 6.30435 10.8829 6.0096Z" fill="#6B7280"/>
</svg>
