<svg width="14" height="14" viewBox="0 0 14 14" fill="none" xmlns="http://www.w3.org/2000/svg">
<path d="M0.25 2.6875C0.25 1.3413 1.3413 0.25 2.6875 0.25H11.3125C12.6587 0.25 13.75 1.3413 13.75 2.6875V11.3125C13.75 12.6587 12.6587 13.75 11.3125 13.75H2.6875C1.3413 13.75 0.25 12.6587 0.25 11.3125V2.6875ZM2.6875 1.375C1.96263 1.375 1.375 1.96263 1.375 2.6875V6.25H12.625V2.6875C12.625 1.96263 12.0374 1.375 11.3125 1.375H2.6875ZM1.375 8.56255L2.26566 7.375H1.375V8.56255ZM2.26566 9.25H4.7327L5.20145 7.375H3.67191L2.26566 9.25ZM1.375 10.375V11.3125C1.375 12.0374 1.96263 12.625 2.6875 12.625H3.88895L4.45145 10.375H1.375ZM5.61107 10.375L5.04857 12.625H9.2935L8.59037 10.375H5.61107ZM9.769 10.375L10.4721 12.625H11.3125C12.0374 12.625 12.625 12.0374 12.625 11.3125V10.375H9.769ZM11.7344 9.25L10.3281 7.375H8.8315L9.4174 9.25H11.7344ZM8.23878 9.25L7.65287 7.375H6.36107L5.89232 9.25H8.23878ZM12.625 8.56255V7.375H11.7344L12.625 8.56255Z" fill="#6B7280"/>
</svg>
