<svg width="16" height="13" viewBox="0 0 16 13" fill="none" xmlns="http://www.w3.org/2000/svg">
<path d="M4.0625 0H11.9375C13.0344 0 13.9313 0.856275 13.9963 1.93686L14 2.0625L14.0005 4.57778C14.8226 4.8105 15.436 5.5404 15.4953 6.4221L15.5 6.5625V12.1875C15.5 12.4981 15.2481 12.75 14.9375 12.75C14.6527 12.75 14.4174 12.5384 14.3801 12.2639L14.375 12.1875V10.5H1.625V12.1875C1.625 12.4723 1.41339 12.7076 1.13883 12.7449L1.0625 12.75C0.777725 12.75 0.542383 12.5384 0.505138 12.2639L0.5 12.1875V6.5625C0.5 5.61832 1.13447 4.82228 2.00033 4.57755L2 2.0625C2 0.965603 2.85627 0.0687001 3.93686 0.00376511L4.0625 0ZM13.4375 5.625H2.5625C2.07709 5.625 1.67785 5.99393 1.62984 6.46665L1.625 6.5625V9.375H14.375V6.5625C14.375 6.0771 14.0061 5.67788 13.5333 5.62988L13.4375 5.625ZM11.9375 1.125H4.0625C3.57709 1.125 3.17785 1.4939 3.12984 1.96664L3.125 2.0625V4.5H4.25C4.25 4.08579 4.58579 3.75 5 3.75H6.5C6.8846 3.75 7.20163 4.03953 7.24498 4.41253L7.25 4.5H8.75C8.75 4.08579 9.08578 3.75 9.5 3.75H11C11.3846 3.75 11.7016 4.03953 11.745 4.41253L11.75 4.5H12.875V2.0625C12.875 1.57709 12.5061 1.17785 12.0333 1.12984L11.9375 1.125Z" fill="#6B7280"/>
</svg>
