<svg width="15" height="16" viewBox="0 0 15 16" fill="none" xmlns="http://www.w3.org/2000/svg">
<path d="M7.479 0.5C7.78965 0.5 8.0415 0.751842 8.0415 1.0625V3.42865L9.64163 1.82854C9.8613 1.60887 10.2174 1.60887 10.4371 1.82854C10.6568 2.04822 10.6568 2.40437 10.4371 2.62404L8.0415 5.01964V7.25H10.2719L12.6674 4.85441C12.8871 4.63474 13.2433 4.63474 13.463 4.85441C13.6826 5.07408 13.6826 5.43023 13.463 5.64991L11.8628 7.25H14.229C14.5397 7.25 14.7915 7.50185 14.7915 7.8125C14.7915 8.12315 14.5397 8.375 14.229 8.375H11.8628L13.463 9.97513C13.6826 10.1948 13.6826 10.5509 13.463 10.7706C13.2433 10.9903 12.8871 10.9903 12.6674 10.7706L10.2719 8.375H8.0415V10.6053L10.4371 13.0009C10.6568 13.2206 10.6568 13.5768 10.4371 13.7964C10.2174 14.0161 9.8613 14.0161 9.64163 13.7964L8.0415 12.1963V14.5625C8.0415 14.8731 7.78965 15.125 7.479 15.125C7.16835 15.125 6.9165 14.8731 6.9165 14.5625V12.1963L5.31641 13.7964C5.09673 14.0161 4.74058 14.0161 4.52091 13.7964C4.30124 13.5768 4.30124 13.2206 4.52091 13.0009L6.9165 10.6053V8.375H4.68614L2.29054 10.7706C2.07087 10.9903 1.71472 10.9903 1.49505 10.7706C1.27538 10.5509 1.27538 10.1948 1.49505 9.97513L3.09515 8.375H0.729004C0.418346 8.375 0.166504 8.12315 0.166504 7.8125C0.166504 7.50185 0.418346 7.25 0.729004 7.25H3.09515L1.49505 5.64991C1.27538 5.43023 1.27538 5.07408 1.49505 4.85441C1.71472 4.63474 2.07087 4.63474 2.29054 4.85441L4.68614 7.25H6.9165V5.01964L4.52091 2.62404C4.30124 2.40437 4.30124 2.04822 4.52091 1.82854C4.74058 1.60887 5.09673 1.60887 5.31641 1.82854L6.9165 3.42865V1.0625C6.9165 0.751842 7.16835 0.5 7.479 0.5Z" fill="#6B7280"/>
</svg>
