<svg width="15" height="16" viewBox="0 0 15 16" fill="none" xmlns="http://www.w3.org/2000/svg">
<path d="M6.87515 0.716136C5.35691 2.03632 4.7647 3.98937 5.09849 5.80327C3.95683 5.14642 2.69841 4.94791 1.25235 5.06841C0.857663 5.1013 0.560213 5.44939 0.59652 5.84883C0.714158 7.14283 1.31044 8.42675 2.14151 9.43048C1.83224 9.42748 1.51958 9.44623 1.20533 9.48815C0.83739 9.5372 0.565965 9.86525 0.594885 10.2412C0.823193 13.2093 3.29812 15.5011 6.27493 15.5011H7.86838L7.88443 15.5009H8.39098C11.3678 15.5009 13.8427 13.2091 14.071 10.2411C14.1 9.86503 13.8286 9.53705 13.4606 9.48793C13.15 9.44653 12.841 9.4277 12.5353 9.43018C13.3663 8.42653 13.9624 7.14275 14.08 5.84883C14.1163 5.44939 13.8189 5.1013 13.4242 5.06841C11.9781 4.9479 10.7125 5.14631 9.5672 5.80402C9.90133 3.9899 9.3092 2.0365 7.79075 0.716136C7.52825 0.487851 7.13765 0.487851 6.87515 0.716136ZM7.33295 7.79555C5.73336 6.13556 5.73336 3.49135 7.33295 1.83139C8.93248 3.49135 8.93248 6.13556 7.33295 7.79555ZM7.33288 12.0017C6.5177 10.9647 5.40904 10.1839 4.15777 9.7679C4.13432 9.74495 4.10851 9.72373 4.08043 9.7046C2.97794 8.95385 2.0409 7.57093 1.77545 6.16417C3.17729 6.11758 4.27784 6.45462 5.28187 7.30513C6.05075 7.95643 6.3917 8.75113 6.64505 9.34145C6.71053 9.49415 6.77015 9.63313 6.82985 9.75245C6.9251 9.94303 7.11988 10.0634 7.33295 10.0634C7.54603 10.0634 7.7408 9.94303 7.83605 9.75245C7.89575 9.63313 7.95538 9.49408 8.02093 9.34145C8.2742 8.75105 8.61523 7.95628 9.38405 7.30505C10.3876 6.45487 11.4968 6.1175 12.9011 6.16418C12.6357 7.571 11.6988 8.95393 10.5962 9.7046C10.5704 9.72215 10.5466 9.74143 10.5247 9.7622C9.2666 10.1768 8.15165 10.96 7.33288 12.0017ZM7.8158 13.2808C8.85995 11.5329 10.8172 10.4455 12.8995 10.5639C12.5341 12.7441 10.6412 14.3759 8.39098 14.3759H7.87618L7.86215 14.3761H6.27493C4.02468 14.3761 2.13179 12.7442 1.76645 10.5641C3.84866 10.4458 5.80588 11.533 6.85003 13.2809C6.9515 13.4508 7.13495 13.5549 7.33288 13.5549C7.53088 13.5549 7.71433 13.4509 7.8158 13.2808Z" fill="#6B7280"/>
</svg>
