<svg width="14" height="14" viewBox="0 0 14 14" fill="none" xmlns="http://www.w3.org/2000/svg">
<path d="M2.125 2.3125C2.125 1.79473 2.54473 1.375 3.0625 1.375C3.58027 1.375 4 1.79473 4 2.3125V7.02693C4.35782 7.06045 4.73323 7.12668 5.125 7.2322V6.25H10V8.87455C10.3594 8.86885 10.686 8.82362 10.9743 8.76017C11.0256 8.74885 11.0759 8.73693 11.125 8.72447V2.3125C11.125 1.17342 10.2016 0.25 9.0625 0.25C7.9234 0.25 7 1.17342 7 2.3125V2.6875C7 2.99816 7.25185 3.25 7.5625 3.25C7.87315 3.25 8.125 2.99816 8.125 2.6875V2.3125C8.125 1.79473 8.5447 1.375 9.0625 1.375C9.5803 1.375 10 1.79473 10 2.3125V5.125H5.125V2.3125C5.125 1.17342 4.20158 0.25 3.0625 0.25C1.92341 0.25 0.999999 1.17342 0.999999 2.3125V2.6875C0.999999 2.99816 1.25184 3.25 1.5625 3.25C1.87316 3.25 2.125 2.99816 2.125 2.6875V2.3125ZM1.21068 9.6445C0.992574 9.8632 0.638529 9.86515 0.418022 9.64818C0.196562 9.4303 0.193644 9.0742 0.411512 8.85273L0.412067 8.85213L0.412674 8.85153L0.414039 8.85017L0.417362 8.84687L0.426377 8.83803C0.433442 8.83113 0.442629 8.82235 0.453909 8.81185C0.476469 8.79093 0.507489 8.76318 0.546864 8.73018C0.625532 8.66418 0.738032 8.57703 0.883547 8.4817C1.17431 8.29135 1.59989 8.0668 2.15247 7.91703C3.27467 7.6129 4.85523 7.63517 6.80305 8.74788C8.5324 9.73577 10.0522 9.73112 11.1356 9.49262C11.6818 9.37232 12.1209 9.19135 12.421 9.04202C12.5707 8.96755 12.6848 8.9014 12.7591 8.85558C12.7962 8.83263 12.8234 8.81485 12.84 8.80375C12.8482 8.7982 12.8538 8.7943 12.8568 8.7922L12.8578 8.79152L12.859 8.7907C13.1104 8.6098 13.461 8.66613 13.6429 8.91715C13.8252 9.16862 13.7692 9.52037 13.5177 9.7027L13.5165 9.70353L13.5152 9.7045L13.5116 9.70705L13.5012 9.7144C13.4928 9.72025 13.4816 9.72797 13.4675 9.73742C13.4394 9.7564 13.3999 9.78213 13.3496 9.8131C13.2493 9.87498 13.1054 9.95807 12.9222 10.0492C12.5565 10.2312 12.0302 10.4476 11.3774 10.5913C10.0629 10.8807 8.251 10.8706 6.24505 9.72475C4.54309 8.75253 3.26789 8.78027 2.44675 9.0028C2.02766 9.11642 1.70969 9.28547 1.49981 9.42288C1.39501 9.4915 1.31792 9.5518 1.26958 9.5923C1.24544 9.61255 1.2286 9.62778 1.21918 9.63647L1.21068 9.6445ZM0.418022 12.6482C0.638529 12.8651 0.992574 12.8632 1.21068 12.6445L1.21918 12.6365C1.2286 12.6278 1.24544 12.6125 1.26958 12.5923C1.31792 12.5518 1.39501 12.4915 1.49981 12.4229C1.70969 12.2855 2.02766 12.1164 2.44675 12.0028C3.26789 11.7803 4.54309 11.7525 6.24505 12.7247C8.251 13.8706 10.0629 13.8807 11.3774 13.5913C12.0302 13.4476 12.5565 13.2312 12.9222 13.0492C13.1054 12.9581 13.2493 12.875 13.3496 12.8131C13.3999 12.7821 13.4394 12.7564 13.4675 12.7374C13.4816 12.728 13.4928 12.7203 13.5012 12.7144L13.5116 12.7071L13.5152 12.7045L13.5165 12.7035C13.5181 12.7024 13.5177 12.7027 13.5177 12.7027C13.7692 12.5204 13.8252 12.1686 13.6429 11.9172C13.461 11.6661 13.1104 11.6098 12.859 11.7907L12.8578 11.7915L12.8568 11.7922C12.8538 11.7943 12.8482 11.7982 12.84 11.8038C12.8234 11.8149 12.7962 11.8326 12.7591 11.8556C12.6848 11.9014 12.5707 11.9676 12.421 12.042C12.1209 12.1913 11.6818 12.3723 11.1356 12.4926C10.0522 12.7311 8.5324 12.7358 6.80305 11.7479C4.85523 10.6352 3.27467 10.6129 2.15247 10.917C1.59989 11.0668 1.17431 11.2913 0.883547 11.4817C0.738032 11.577 0.625532 11.6642 0.546864 11.7302C0.507489 11.7632 0.476469 11.7909 0.453909 11.8118C0.442629 11.8224 0.433442 11.8311 0.426377 11.838L0.417362 11.8469L0.414039 11.8502L0.412674 11.8515L0.412067 11.8521L0.411512 11.8527C0.193644 12.0742 0.196562 12.4303 0.418022 12.6482Z" fill="#6B7280"/>
</svg>
