<svg width="16" height="16" viewBox="0 0 16 16" fill="none" xmlns="http://www.w3.org/2000/svg">
<path d="M2.125 1.0625C2.125 0.751842 1.87316 0.5 1.5625 0.5C1.25184 0.5 1 0.751842 1 1.0625C1 2.0155 1.69605 2.5004 2.12928 2.80222L2.17743 2.83581C2.68739 3.19279 2.875 3.36417 2.875 3.6875C2.875 3.99816 3.12684 4.25 3.4375 4.25C3.74816 4.25 4 3.99816 4 3.6875C4 2.7345 3.30395 2.2496 2.87072 1.94778L2.82258 1.91419C2.31261 1.55721 2.125 1.38583 2.125 1.0625ZM0.25 6.36607C0.25 5.61161 0.86161 5 1.61607 5H10.884C11.6384 5 12.25 5.61161 12.25 6.36607V6.875H12.8125C14.1587 6.875 15.25 7.96632 15.25 9.3125C15.25 10.6587 14.1587 11.75 12.8125 11.75H11.8139C10.9238 13.9488 8.76805 15.5 6.25 15.5C2.93629 15.5 0.25 12.8137 0.25 9.5V6.36607ZM11.125 6.36607C11.125 6.23293 11.0171 6.125 10.884 6.125H1.61607C1.48293 6.125 1.375 6.23293 1.375 6.36607V9.5C1.375 12.1924 3.55761 14.375 6.25 14.375C8.94242 14.375 11.125 12.1924 11.125 9.5V6.36607ZM12.8125 8H12.25V9.5C12.25 9.88453 12.2139 10.2606 12.1447 10.625H12.8125C13.5374 10.625 14.125 10.0374 14.125 9.3125C14.125 8.58762 13.5374 8 12.8125 8ZM4.5625 0.5C4.87316 0.5 5.125 0.751842 5.125 1.0625C5.125 1.38583 5.31261 1.55721 5.82258 1.91419L5.87072 1.94778C6.30393 2.2496 7 2.7345 7 3.6875C7 3.99816 6.74815 4.25 6.4375 4.25C6.12685 4.25 5.875 3.99816 5.875 3.6875C5.875 3.36417 5.68742 3.19279 5.17742 2.83581L5.12928 2.80222C4.69604 2.5004 4 2.0155 4 1.0625C4 0.751842 4.25184 0.5 4.5625 0.5ZM8.125 1.0625C8.125 0.751842 7.87315 0.5 7.5625 0.5C7.25185 0.5 7 0.751842 7 1.0625C7 2.0155 7.69607 2.5004 8.12928 2.80222L8.17742 2.83581C8.68742 3.19279 8.875 3.36417 8.875 3.6875C8.875 3.99816 9.12685 4.25 9.4375 4.25C9.74815 4.25 10 3.99816 10 3.6875C10 2.7345 9.30392 2.2496 8.87072 1.94778L8.82258 1.91419C8.31258 1.55721 8.125 1.38583 8.125 1.0625Z" fill="#6B7280"/>
</svg>
