<svg width="14" height="14" viewBox="0 0 14 14" fill="none" xmlns="http://www.w3.org/2000/svg">
<path d="M3.69663 9.51227C3.9163 9.2926 4.27245 9.2926 4.49213 9.51227C4.71179 9.73195 4.71179 10.088 4.49213 10.3077L2.17075 12.6281H3.8125C4.09728 12.6281 4.33262 12.8398 4.36986 13.1143L4.375 13.1906C4.375 13.5013 4.12316 13.7531 3.8125 13.7531H0.8125C0.501842 13.7531 0.25 13.5013 0.25 13.1906V10.1906C0.25 9.88 0.501842 9.62815 0.8125 9.62815C1.12316 9.62815 1.375 9.88 1.375 10.1906V11.8324L3.69663 9.51227ZM10.1912 13.7531C9.8806 13.7531 9.62875 13.5013 9.62875 13.1906C9.62875 12.88 9.8806 12.6281 10.1912 12.6281H11.8307L9.51213 10.3076C9.31248 10.1079 9.29447 9.79533 9.4579 9.5752L9.51243 9.51213C9.73217 9.29252 10.0883 9.29268 10.3079 9.51243L12.6287 11.8347V10.1906C12.6287 9.90588 12.8404 9.67052 13.1149 9.63332L13.1912 9.62815C13.5019 9.62815 13.7537 9.88 13.7537 10.1906V13.1906C13.7537 13.5013 13.5019 13.7531 13.1912 13.7531H10.1912ZM3.8125 0.25C4.12316 0.25 4.375 0.501842 4.375 0.8125C4.375 1.12316 4.12316 1.375 3.8125 1.375H2.17225L4.49166 3.69616C4.69128 3.89594 4.7093 4.20844 4.54583 4.42859L4.49134 4.49166C4.27158 4.71124 3.91543 4.7111 3.69585 4.49134L1.375 2.1685V3.8125C1.375 4.09728 1.16339 4.33262 0.888827 4.36986L0.8125 4.375C0.501842 4.375 0.25 4.12316 0.25 3.8125V0.8125C0.25 0.501842 0.501842 0.25 0.8125 0.25H3.8125ZM13.1912 0.25C13.5019 0.25 13.7537 0.501842 13.7537 0.8125V3.8125C13.7537 4.12316 13.5019 4.375 13.1912 4.375C12.8806 4.375 12.6287 4.12316 12.6287 3.8125V2.16925L10.3078 4.49142C10.1082 4.69115 9.7957 4.70937 9.57543 4.54603L9.51235 4.49158C9.2926 4.27195 9.29253 3.9158 9.5122 3.69608L11.8315 1.375H10.1912C9.90647 1.375 9.67112 1.16339 9.63385 0.888827L9.62875 0.8125C9.62875 0.501842 9.8806 0.25 10.1912 0.25H13.1912Z" fill="#6B7280"/>
</svg>
