<svg width="16" height="16" viewBox="0 0 16 16" fill="none" xmlns="http://www.w3.org/2000/svg">
<path d="M6.01286 2.99108C7.4108 0.56972 10.507 -0.259894 12.9284 1.13808C15.3497 2.53605 16.1793 5.63222 14.7813 8.05355L14.5938 8.37838C14.4385 8.6474 14.0945 8.73958 13.8255 8.58425L10.4065 6.61025L8.62677 9.72463C10.0555 9.89375 11.3189 10.632 12.259 11.6856C11.865 11.7496 11.5152 11.9682 11.2845 12.2871C10.4106 11.3809 9.24957 10.8127 8 10.8127C6.75042 10.8127 5.58946 11.3809 4.71556 12.2871C4.48453 11.9677 4.13427 11.7494 3.74099 11.6855C4.67115 10.6431 5.9178 9.90942 7.32785 9.73018L9.43213 6.04773L6.03125 4.08423C5.76221 3.9289 5.67003 3.58488 5.82536 3.31584L6.01286 2.99108ZM7.0847 3.3934L8.5592 4.2447C8.95977 3.63051 9.36485 3.12499 9.86683 2.66856C10.261 2.31016 10.705 1.99104 11.2364 1.67423C9.665 1.33111 7.99018 1.98214 7.0847 3.3934ZM11.4422 5.90921C11.8581 5.16142 12.0576 4.56715 12.1294 3.99297C12.1876 3.52708 12.165 3.05114 12.0813 2.48496C11.4677 2.83021 11.0093 3.15025 10.6237 3.50092C10.224 3.86436 9.88737 4.27424 9.5351 4.80812L11.4422 5.90921ZM12.4166 6.47177L13.897 7.3265C14.6794 5.81167 14.3833 4.00089 13.2547 2.81194C13.2972 3.26078 13.3005 3.69393 13.2456 4.13251C13.151 4.8898 12.8885 5.62675 12.4166 6.47177ZM4.03554 12.994C3.95828 12.7537 3.73027 12.5942 3.47794 12.6041C3.22561 12.614 3.01081 12.7909 2.95264 13.0366C2.79451 13.7045 2.49754 14.0592 2.17152 14.2621C1.82733 14.4763 1.3838 14.5627 0.875 14.5627C0.564342 14.5627 0.3125 14.8145 0.3125 15.1252C0.3125 15.4359 0.564342 15.6877 0.875 15.6877C1.4912 15.6877 2.17267 15.5865 2.76598 15.2172C3.07542 15.0246 3.34428 14.7695 3.56249 14.4457C4.72609 15.8451 6.8696 15.838 8 14.424C9.1502 15.8629 11.3496 15.8449 12.498 14.3706C13.1336 15.2025 14.1256 15.6877 15.125 15.6877C15.4356 15.6877 15.6875 15.4359 15.6875 15.1252C15.6875 14.8145 15.4356 14.5627 15.125 14.5627C14.2377 14.5627 13.3366 13.9648 13.0372 12.9995C12.9645 12.7651 12.7483 12.6049 12.5028 12.6037C12.2574 12.6024 12.0396 12.7604 11.9645 12.994C11.3765 14.8238 9.1073 14.7933 8.53362 13.0723C8.45705 12.8426 8.2421 12.6877 8 12.6877C7.7579 12.6877 7.54295 12.8426 7.46637 13.0723C6.8927 14.7933 4.62349 14.8238 4.03554 12.994Z" fill="#6B7280"/>
</svg>
