<svg width="12" height="16" viewBox="0 0 12 16" fill="none" xmlns="http://www.w3.org/2000/svg">
<path d="M10.3159 9.5004C11.2474 9.5004 12.0025 10.2555 12.0025 11.1871V11.6186C12.0025 12.2893 11.7628 12.9379 11.3267 13.4475C10.1497 14.8226 8.35927 15.5012 6.0003 15.5012C3.64087 15.5012 1.85137 14.8224 0.67664 13.4467C0.241812 12.9375 0.00292969 12.2899 0.00292969 11.6203V11.1871C0.00292969 10.2555 0.758067 9.5004 1.68958 9.5004H10.3159ZM10.3159 10.6254H1.68958C1.37939 10.6254 1.12793 10.8769 1.12793 11.1871V11.6203C1.12793 12.022 1.27126 12.4106 1.53215 12.7161C2.47213 13.8169 3.94654 14.3762 6.0003 14.3762C8.05402 14.3762 9.52972 13.8169 10.472 12.7159C10.7338 12.4102 10.8775 12.021 10.8775 11.6186V11.1871C10.8775 10.8769 10.6261 10.6254 10.3159 10.6254ZM6.0003 0.503906C8.07135 0.503906 9.7503 2.18284 9.7503 4.25391C9.7503 6.32498 8.07135 8.00392 6.0003 8.00392C3.9292 8.00392 2.25027 6.32498 2.25027 4.25391C2.25027 2.18284 3.9292 0.503906 6.0003 0.503906ZM6.0003 1.62891C4.55055 1.62891 3.37527 2.80416 3.37527 4.25391C3.37527 5.70366 4.55055 6.87892 6.0003 6.87892C7.45005 6.87892 8.6253 5.70366 8.6253 4.25391C8.6253 2.80416 7.45005 1.62891 6.0003 1.62891Z" fill="#6B7280"/>
</svg>
