<svg width="16" height="12" viewBox="0 0 16 12" fill="none" xmlns="http://www.w3.org/2000/svg">
<path d="M4.104 0C2.96492 0 2.0415 0.923415 2.0415 2.0625V3.06523C0.966491 3.31916 0.166504 4.28491 0.166504 5.4375V7.6875C0.166504 8.76338 0.990281 9.64688 2.0415 9.7416V10.6875C2.0415 10.9981 2.29335 11.25 2.604 11.25C2.91466 11.25 3.1665 10.9981 3.1665 10.6875V9.75H12.1665V10.6875C12.1665 10.9981 12.4184 11.25 12.729 11.25C13.0397 11.25 13.2915 10.9981 13.2915 10.6875V9.7416C14.3427 9.64688 15.1665 8.76338 15.1665 7.6875V5.4375C15.1665 4.28491 14.3665 3.31916 13.2915 3.06523V2.0625C13.2915 0.923415 12.3681 0 11.229 0H4.104ZM13.104 8.625H2.229C1.71123 8.625 1.2915 8.2053 1.2915 7.6875V5.4375C1.2915 4.71263 1.87913 4.125 2.604 4.125C3.32888 4.125 3.9165 4.71263 3.9165 5.4375V5.8125C3.9165 6.12315 4.16835 6.375 4.479 6.375H10.854C11.1647 6.375 11.4165 6.12315 11.4165 5.8125V5.4375C11.4165 4.71263 12.0041 4.125 12.729 4.125C13.4539 4.125 14.0415 4.71263 14.0415 5.4375V7.6875C14.0415 8.2053 13.6218 8.625 13.104 8.625ZM12.1665 3.06523C11.1503 3.30527 10.3799 4.18132 10.2986 5.25H5.0344C4.9531 4.18132 4.18267 3.30527 3.1665 3.06523V2.0625C3.1665 1.54473 3.58623 1.125 4.104 1.125H11.229C11.7468 1.125 12.1665 1.54473 12.1665 2.0625V3.06523Z" fill="#6B7280"/>
</svg>
