<svg width="16" height="17" viewBox="0 0 16 17" fill="none" xmlns="http://www.w3.org/2000/svg">
<path d="M8 0.5C3.58176 0.5 0 4.08176 0 8.5C0 12.2517 2.58304 15.3998 6.06752 16.2645V10.9448H4.41792V8.5H6.06752V7.44656C6.06752 4.72368 7.29984 3.4616 9.97312 3.4616C10.48 3.4616 11.3546 3.56112 11.7123 3.66032V5.87632C11.5235 5.85648 11.1955 5.84656 10.7882 5.84656C9.47648 5.84656 8.9696 6.34352 8.9696 7.63536V8.5H11.5827L11.1338 10.9448H8.9696V16.4414C12.9309 15.963 16.0003 12.5902 16.0003 8.5C16 4.08176 12.4182 0.5 8 0.5Z" fill="#EEF1F0"/>
</svg>
