<svg width="20" height="21" viewBox="0 0 20 21" fill="none" xmlns="http://www.w3.org/2000/svg">
<path d="M0 20.5L1.40583 15.3642C0.538332 13.8608 0.0824998 12.1567 0.0833332 10.4092C0.0858331 4.94583 4.53166 0.5 9.99414 0.5C12.645 0.500833 15.1333 1.53333 17.005 3.40667C18.8758 5.28 19.9058 7.77 19.905 10.4183C19.9025 15.8825 15.4566 20.3283 9.99414 20.3283C8.33581 20.3275 6.70165 19.9117 5.25415 19.1217L0 20.5ZM5.49749 17.3275C6.89415 18.1567 8.22748 18.6533 9.99081 18.6542C14.5308 18.6542 18.2291 14.9592 18.2316 10.4167C18.2333 5.865 14.5525 2.175 9.99748 2.17333C5.45415 2.17333 1.75833 5.86833 1.75666 10.41C1.75583 12.2642 2.29916 13.6525 3.21166 15.105L2.37916 18.145L5.49749 17.3275ZM14.9866 12.7742C14.925 12.6708 14.76 12.6092 14.5116 12.485C14.2641 12.3608 13.0466 11.7617 12.8191 11.6792C12.5925 11.5967 12.4275 11.555 12.2616 11.8033C12.0966 12.0508 11.6216 12.6092 11.4775 12.7742C11.3333 12.9392 11.1883 12.96 10.9408 12.8358C10.6933 12.7117 9.89498 12.4508 8.94915 11.6067C8.21331 10.95 7.71582 10.1392 7.57165 9.89083C7.42748 9.64333 7.55665 9.50917 7.67998 9.38583C7.79165 9.275 7.92748 9.09667 8.05165 8.95167C8.17748 8.80833 8.21831 8.705 8.30165 8.53917C8.38415 8.37417 8.34331 8.22917 8.28082 8.105C8.21832 7.98167 7.72332 6.7625 7.51748 6.26667C7.31582 5.78417 7.11165 5.84917 6.95998 5.84167L6.48499 5.83333C6.31999 5.83333 6.05165 5.895 5.82499 6.14333C5.59832 6.39167 4.95832 6.99 4.95832 8.20917C4.95832 9.42833 5.84582 10.6058 5.96915 10.7708C6.09332 10.9358 7.71498 13.4375 10.1991 14.51C10.79 14.765 11.2516 14.9175 11.6108 15.0317C12.2041 15.22 12.7441 15.1933 13.1708 15.13C13.6466 15.0592 14.6358 14.5308 14.8425 13.9525C15.0491 13.3733 15.0491 12.8775 14.9866 12.7742Z" fill="#FDFFFC"/>
</svg>
