<svg width="109" height="109" viewBox="0 0 109 109" fill="none" xmlns="http://www.w3.org/2000/svg">
<path d="M51.9415 2.12902C53.4241 0.895306 55.5759 0.895308 57.0585 2.12902L63.3934 7.40042C64.3741 8.21651 65.6854 8.51579 66.9231 8.20604L74.9178 6.20527C76.7888 5.73701 78.7276 6.67067 79.5281 8.42549L82.9484 15.9235C83.4779 17.0842 84.5295 17.9228 85.779 18.1807L93.8501 19.8469C95.739 20.2368 97.0807 21.9192 97.0405 23.8476L96.8689 32.087C96.8423 33.3626 97.4259 34.5744 98.4397 35.3489L104.989 40.352C106.521 41.5229 107 43.6208 106.127 45.3408L102.398 52.6898C101.82 53.8275 101.82 55.1725 102.398 56.3102L106.127 63.6592C107 65.3792 106.521 67.4771 104.989 68.648L98.4397 73.6511C97.4259 74.4256 96.8423 75.6374 96.8689 76.913L97.0405 85.1524C97.0807 87.0808 95.739 88.7632 93.8501 89.1531L85.779 90.8193C84.5295 91.0772 83.4779 91.9158 82.9484 93.0765L79.5281 100.575C78.7276 102.329 76.7888 103.263 74.9178 102.795L66.9231 100.794C65.6854 100.484 64.3741 100.783 63.3934 101.6L57.0585 106.871C55.5759 108.105 53.4241 108.105 51.9415 106.871L45.6066 101.6C44.6259 100.783 43.3146 100.484 42.0769 100.794L34.0822 102.795C32.2112 103.263 30.2724 102.329 29.4719 100.575L26.0516 93.0765C25.522 91.9158 24.4705 91.0772 23.221 90.8193L15.1499 89.1531C13.261 88.7632 11.9193 87.0808 11.9595 85.1524L12.1311 76.913C12.1577 75.6374 11.5741 74.4256 10.5603 73.6511L4.0114 68.648C2.4787 67.4771 1.99987 65.3792 2.87274 63.6592L6.60233 56.3102C7.17973 55.1725 7.17973 53.8275 6.60233 52.6898L2.87274 45.3408C1.99987 43.6208 2.47871 41.5229 4.0114 40.352L10.5603 35.3489C11.5741 34.5744 12.1577 33.3626 12.1311 32.087L11.9595 23.8476C11.9193 21.9192 13.261 20.2368 15.1499 19.8469L23.221 18.1807C24.4705 17.9228 25.522 17.0842 26.0516 15.9235L29.4719 8.42549C30.2724 6.67067 32.2112 5.73701 34.0823 6.20527L42.0769 8.20604C43.3146 8.51579 44.6259 8.21651 45.6066 7.40042L51.9415 2.12902Z" fill="url(#paint0_linear_3034_5869)"/>
<path d="M42.6392 31.144C41.9752 31.144 41.3832 31.004 40.8632 30.724C40.3512 30.444 39.9472 30.06 39.6512 29.572C39.3632 29.084 39.2192 28.528 39.2192 27.904V22.06H40.6352V27.844C40.6352 28.236 40.7192 28.584 40.8872 28.888C41.0632 29.192 41.2992 29.428 41.5952 29.596C41.8992 29.764 42.2472 29.848 42.6392 29.848C43.0392 29.848 43.3872 29.764 43.6832 29.596C43.9872 29.428 44.2232 29.192 44.3912 28.888C44.5672 28.584 44.6552 28.236 44.6552 27.844V22.06H46.0592V27.904C46.0592 28.528 45.9152 29.084 45.6272 29.572C45.3392 30.06 44.9352 30.444 44.4152 30.724C43.9032 31.004 43.3112 31.144 42.6392 31.144ZM47.7022 33.4V24.508H48.9982V25.852L48.8422 25.54C49.0822 25.172 49.4022 24.884 49.8022 24.676C50.2022 24.468 50.6582 24.364 51.1702 24.364C51.7862 24.364 52.3382 24.512 52.8262 24.808C53.3222 25.104 53.7102 25.508 53.9902 26.02C54.2782 26.532 54.4222 27.108 54.4222 27.748C54.4222 28.388 54.2782 28.964 53.9902 29.476C53.7102 29.988 53.3262 30.396 52.8382 30.7C52.3502 30.996 51.7942 31.144 51.1702 31.144C50.6662 31.144 50.2062 31.04 49.7902 30.832C49.3822 30.624 49.0662 30.324 48.8422 29.932L49.0582 29.68V33.4H47.7022ZM51.0382 29.884C51.4222 29.884 51.7622 29.792 52.0582 29.608C52.3542 29.424 52.5862 29.172 52.7542 28.852C52.9302 28.524 53.0182 28.156 53.0182 27.748C53.0182 27.34 52.9302 26.976 52.7542 26.656C52.5862 26.336 52.3542 26.084 52.0582 25.9C51.7622 25.716 51.4222 25.624 51.0382 25.624C50.6622 25.624 50.3222 25.716 50.0182 25.9C49.7222 26.084 49.4862 26.336 49.3102 26.656C49.1422 26.976 49.0582 27.34 49.0582 27.748C49.0582 28.156 49.1422 28.524 49.3102 28.852C49.4862 29.172 49.7222 29.424 50.0182 29.608C50.3222 29.792 50.6622 29.884 51.0382 29.884ZM60.6469 31.072C59.9669 31.072 59.4389 30.88 59.0629 30.496C58.6869 30.112 58.4989 29.572 58.4989 28.876V25.732H57.3589V24.508H57.5389C57.8429 24.508 58.0789 24.42 58.2469 24.244C58.4149 24.068 58.4989 23.828 58.4989 23.524V23.02H59.8549V24.508H61.3309V25.732H59.8549V28.816C59.8549 29.04 59.8909 29.232 59.9629 29.392C60.0349 29.544 60.1509 29.664 60.3109 29.752C60.4709 29.832 60.6789 29.872 60.9349 29.872C60.9989 29.872 61.0709 29.868 61.1509 29.86C61.2309 29.852 61.3069 29.844 61.3789 29.836V31C61.2669 31.016 61.1429 31.032 61.0069 31.048C60.8709 31.064 60.7509 31.072 60.6469 31.072ZM65.717 31.144C65.093 31.144 64.521 30.996 64.001 30.7C63.489 30.404 63.081 30 62.777 29.488C62.473 28.976 62.321 28.396 62.321 27.748C62.321 27.092 62.473 26.512 62.777 26.008C63.081 25.496 63.489 25.096 64.001 24.808C64.513 24.512 65.085 24.364 65.717 24.364C66.357 24.364 66.929 24.512 67.433 24.808C67.945 25.096 68.349 25.496 68.645 26.008C68.949 26.512 69.101 27.092 69.101 27.748C69.101 28.404 68.949 28.988 68.645 29.5C68.341 30.012 67.933 30.416 67.421 30.712C66.909 31 66.341 31.144 65.717 31.144ZM65.717 29.884C66.101 29.884 66.441 29.792 66.737 29.608C67.033 29.424 67.265 29.172 67.433 28.852C67.609 28.524 67.697 28.156 67.697 27.748C67.697 27.34 67.609 26.976 67.433 26.656C67.265 26.336 67.033 26.084 66.737 25.9C66.441 25.716 66.101 25.624 65.717 25.624C65.341 25.624 65.001 25.716 64.697 25.9C64.401 26.084 64.165 26.336 63.989 26.656C63.821 26.976 63.737 27.34 63.737 27.748C63.737 28.156 63.821 28.524 63.989 28.852C64.165 29.172 64.401 29.424 64.697 29.608C65.001 29.792 65.341 29.884 65.717 29.884Z" fill="white"/>
<path d="M36.2486 55.24C35.4619 55.24 34.7086 55.0933 33.9886 54.8C33.2819 54.5067 32.6686 54.0933 32.1486 53.56C31.6419 53.0133 31.2953 52.3667 31.1086 51.62L33.4686 50.78C33.6953 51.46 34.0619 51.9667 34.5686 52.3C35.0753 52.62 35.6353 52.78 36.2486 52.78C36.7553 52.78 37.2019 52.6733 37.5886 52.46C37.9886 52.2333 38.2953 51.9267 38.5086 51.54C38.7219 51.14 38.8286 50.68 38.8286 50.16C38.8286 49.64 38.7153 49.1867 38.4886 48.8C38.2753 48.4133 37.9753 48.1133 37.5886 47.9C37.2019 47.6733 36.7553 47.56 36.2486 47.56C35.7286 47.56 35.2553 47.6733 34.8286 47.9C34.4153 48.1267 34.1153 48.4533 33.9286 48.88L31.7086 48.38L32.8886 40.1H41.0086V42.4H33.9686L34.9886 41.22L34.1486 47.46L33.3686 46.82C33.7419 46.2733 34.1953 45.8733 34.7286 45.62C35.2753 45.3667 35.9353 45.24 36.7086 45.24C37.6953 45.24 38.5486 45.4533 39.2686 45.88C40.0019 46.3067 40.5686 46.8867 40.9686 47.62C41.3686 48.3533 41.5686 49.2 41.5686 50.16C41.5686 51.12 41.3353 51.9867 40.8686 52.76C40.4019 53.5333 39.7686 54.14 38.9686 54.58C38.1686 55.02 37.2619 55.24 36.2486 55.24ZM49.6933 55.24C48.5066 55.24 47.4666 54.92 46.5733 54.28C45.6799 53.64 44.9799 52.74 44.4733 51.58C43.9799 50.42 43.7333 49.0733 43.7333 47.54C43.7333 45.9933 43.9799 44.6467 44.4733 43.5C44.9666 42.3533 45.6599 41.46 46.5533 40.82C47.4466 40.18 48.4866 39.86 49.6733 39.86C50.8866 39.86 51.9333 40.18 52.8133 40.82C53.7066 41.46 54.4066 42.36 54.9133 43.52C55.4199 44.6667 55.6733 46.0067 55.6733 47.54C55.6733 49.0733 55.4199 50.42 54.9133 51.58C54.4199 52.7267 53.7266 53.6267 52.8333 54.28C51.9399 54.92 50.8933 55.24 49.6933 55.24ZM49.7133 52.76C50.3933 52.76 50.9733 52.5533 51.4533 52.14C51.9333 51.7133 52.2999 51.1133 52.5533 50.34C52.8199 49.5533 52.9533 48.62 52.9533 47.54C52.9533 46.46 52.8199 45.5333 52.5533 44.76C52.2999 43.9733 51.9266 43.3733 51.4333 42.96C50.9533 42.5467 50.3666 42.34 49.6733 42.34C49.0066 42.34 48.4333 42.5467 47.9533 42.96C47.4733 43.3733 47.0999 43.9733 46.8333 44.76C46.5799 45.5333 46.4533 46.46 46.4533 47.54C46.4533 48.6067 46.5799 49.5333 46.8333 50.32C47.0999 51.0933 47.4733 51.6933 47.9533 52.12C48.4466 52.5467 49.0333 52.76 49.7133 52.76ZM59.8334 55L71.9134 40.1H74.7134L62.6334 55H59.8334ZM62.1734 47.66C61.4268 47.66 60.7534 47.4867 60.1534 47.14C59.5668 46.78 59.1001 46.3067 58.7534 45.72C58.4068 45.1333 58.2334 44.48 58.2334 43.76C58.2334 43.04 58.4068 42.3867 58.7534 41.8C59.1001 41.2 59.5668 40.7267 60.1534 40.38C60.7534 40.0333 61.4201 39.86 62.1534 39.86C62.9001 39.86 63.5668 40.0333 64.1534 40.38C64.7401 40.7267 65.2068 41.2 65.5534 41.8C65.9001 42.3867 66.0734 43.04 66.0734 43.76C66.0734 44.48 65.9001 45.1333 65.5534 45.72C65.2068 46.3067 64.7401 46.78 64.1534 47.14C63.5668 47.4867 62.9068 47.66 62.1734 47.66ZM62.1534 45.64C62.5534 45.64 62.8868 45.5533 63.1534 45.38C63.4201 45.1933 63.6201 44.96 63.7534 44.68C63.9001 44.3867 63.9734 44.08 63.9734 43.76C63.9734 43.4267 63.9001 43.12 63.7534 42.84C63.6201 42.56 63.4201 42.3267 63.1534 42.14C62.8868 41.9533 62.5534 41.86 62.1534 41.86C61.7801 41.86 61.4534 41.9533 61.1734 42.14C60.9068 42.3267 60.7001 42.5667 60.5534 42.86C60.4068 43.14 60.3334 43.44 60.3334 43.76C60.3334 44.0667 60.4068 44.3667 60.5534 44.66C60.7001 44.9533 60.9068 45.1933 61.1734 45.38C61.4534 45.5533 61.7801 45.64 62.1534 45.64ZM72.3134 55.24C71.5801 55.24 70.9134 55.0667 70.3134 54.72C69.7268 54.36 69.2601 53.8867 68.9134 53.3C68.5668 52.7133 68.3934 52.06 68.3934 51.34C68.3934 50.62 68.5668 49.9667 68.9134 49.38C69.2601 48.78 69.7268 48.3067 70.3134 47.96C70.9134 47.6133 71.5801 47.44 72.3134 47.44C73.0601 47.44 73.7268 47.6133 74.3134 47.96C74.9001 48.3067 75.3668 48.78 75.7134 49.38C76.0601 49.9667 76.2334 50.62 76.2334 51.34C76.2334 52.06 76.0601 52.7133 75.7134 53.3C75.3668 53.8867 74.9001 54.36 74.3134 54.72C73.7268 55.0667 73.0601 55.24 72.3134 55.24ZM72.3134 53.22C72.7001 53.22 73.0268 53.1333 73.2934 52.96C73.5734 52.7733 73.7801 52.54 73.9134 52.26C74.0601 51.9667 74.1334 51.66 74.1334 51.34C74.1334 51.0067 74.0601 50.7 73.9134 50.42C73.7801 50.14 73.5734 49.9067 73.2934 49.72C73.0268 49.5333 72.7001 49.44 72.3134 49.44C71.9401 49.44 71.6134 49.5333 71.3334 49.72C71.0668 49.9067 70.8601 50.1467 70.7134 50.44C70.5668 50.72 70.4934 51.02 70.4934 51.34C70.4934 51.6467 70.5668 51.9467 70.7134 52.24C70.8601 52.5333 71.0668 52.7733 71.3334 52.96C71.6134 53.1333 71.9401 53.22 72.3134 53.22Z" fill="white"/>
<path d="M31.4103 71V62.06H32.7303L36.0903 66.716H35.4303L38.7303 62.06H40.0503V71H38.6463V63.728L39.1743 63.872L35.8023 68.48H35.6583L32.3583 63.872L32.8263 63.728V71H31.4103ZM44.8986 71.144C44.2746 71.144 43.7026 70.996 43.1826 70.7C42.6706 70.404 42.2626 70 41.9586 69.488C41.6546 68.976 41.5026 68.396 41.5026 67.748C41.5026 67.092 41.6546 66.512 41.9586 66.008C42.2626 65.496 42.6706 65.096 43.1826 64.808C43.6946 64.512 44.2666 64.364 44.8986 64.364C45.5386 64.364 46.1106 64.512 46.6146 64.808C47.1266 65.096 47.5306 65.496 47.8266 66.008C48.1306 66.512 48.2826 67.092 48.2826 67.748C48.2826 68.404 48.1306 68.988 47.8266 69.5C47.5226 70.012 47.1146 70.416 46.6026 70.712C46.0906 71 45.5226 71.144 44.8986 71.144ZM44.8986 69.884C45.2826 69.884 45.6226 69.792 45.9186 69.608C46.2146 69.424 46.4466 69.172 46.6146 68.852C46.7906 68.524 46.8786 68.156 46.8786 67.748C46.8786 67.34 46.7906 66.976 46.6146 66.656C46.4466 66.336 46.2146 66.084 45.9186 65.9C45.6226 65.716 45.2826 65.624 44.8986 65.624C44.5226 65.624 44.1826 65.716 43.8786 65.9C43.5826 66.084 43.3466 66.336 43.1706 66.656C43.0026 66.976 42.9186 67.34 42.9186 67.748C42.9186 68.156 43.0026 68.524 43.1706 68.852C43.3466 69.172 43.5826 69.424 43.8786 69.608C44.1826 69.792 44.5226 69.884 44.8986 69.884ZM49.6065 71V64.508H50.9025V65.78L50.7465 65.612C50.9065 65.204 51.1625 64.896 51.5145 64.688C51.8665 64.472 52.2745 64.364 52.7385 64.364C53.2185 64.364 53.6425 64.468 54.0105 64.676C54.3785 64.884 54.6665 65.172 54.8745 65.54C55.0825 65.908 55.1865 66.332 55.1865 66.812V71H53.8425V67.172C53.8425 66.844 53.7825 66.568 53.6625 66.344C53.5425 66.112 53.3705 65.936 53.1465 65.816C52.9305 65.688 52.6825 65.624 52.4025 65.624C52.1225 65.624 51.8705 65.688 51.6465 65.816C51.4305 65.936 51.2625 66.112 51.1425 66.344C51.0225 66.576 50.9625 66.852 50.9625 67.172V71H49.6065ZM59.4457 71.072C58.7657 71.072 58.2377 70.88 57.8617 70.496C57.4857 70.112 57.2977 69.572 57.2977 68.876V65.732H56.1577V64.508H56.3377C56.6417 64.508 56.8777 64.42 57.0457 64.244C57.2137 64.068 57.2977 63.828 57.2977 63.524V63.02H58.6537V64.508H60.1297V65.732H58.6537V68.816C58.6537 69.04 58.6897 69.232 58.7617 69.392C58.8337 69.544 58.9497 69.664 59.1097 69.752C59.2697 69.832 59.4777 69.872 59.7337 69.872C59.7977 69.872 59.8697 69.868 59.9497 69.86C60.0297 69.852 60.1057 69.844 60.1777 69.836V71C60.0657 71.016 59.9417 71.032 59.8057 71.048C59.6697 71.064 59.5497 71.072 59.4457 71.072ZM61.501 71V61.916H62.857V65.78L62.641 65.612C62.801 65.204 63.057 64.896 63.409 64.688C63.761 64.472 64.169 64.364 64.633 64.364C65.113 64.364 65.537 64.468 65.905 64.676C66.273 64.884 66.561 65.172 66.769 65.54C66.977 65.908 67.081 66.328 67.081 66.8V71H65.737V67.172C65.737 66.844 65.673 66.568 65.545 66.344C65.425 66.112 65.257 65.936 65.041 65.816C64.825 65.688 64.577 65.624 64.297 65.624C64.025 65.624 63.777 65.688 63.553 65.816C63.337 65.936 63.165 66.112 63.037 66.344C62.917 66.576 62.857 66.852 62.857 67.172V71H61.501ZM68.5322 71V61.916H69.8882V71H68.5322ZM72.0496 73.64C71.8896 73.64 71.7296 73.624 71.5696 73.592C71.4176 73.568 71.2776 73.528 71.1496 73.472V72.308C71.2456 72.332 71.3616 72.352 71.4976 72.368C71.6336 72.392 71.7656 72.404 71.8936 72.404C72.2696 72.404 72.5456 72.32 72.7216 72.152C72.9056 71.992 73.0696 71.744 73.2136 71.408L73.6456 70.424L73.6216 71.564L70.8136 64.508H72.2656L74.3416 69.92H73.8496L75.9136 64.508H77.3776L74.5096 71.708C74.3576 72.092 74.1656 72.428 73.9336 72.716C73.7096 73.012 73.4416 73.24 73.1296 73.4C72.8256 73.56 72.4656 73.64 72.0496 73.64ZM32.21 86.144C31.586 86.144 31.026 85.996 30.53 85.7C30.042 85.396 29.654 84.988 29.366 84.476C29.086 83.964 28.946 83.388 28.946 82.748C28.946 82.108 29.09 81.532 29.378 81.02C29.666 80.508 30.054 80.104 30.542 79.808C31.03 79.512 31.582 79.364 32.198 79.364C32.718 79.364 33.178 79.468 33.578 79.676C33.978 79.884 34.294 80.172 34.526 80.54L34.322 80.852V76.916H35.666V86H34.382V84.68L34.538 84.932C34.314 85.324 33.994 85.624 33.578 85.832C33.162 86.04 32.706 86.144 32.21 86.144ZM32.342 84.884C32.718 84.884 33.054 84.792 33.35 84.608C33.654 84.424 33.89 84.172 34.058 83.852C34.234 83.524 34.322 83.156 34.322 82.748C34.322 82.34 34.234 81.976 34.058 81.656C33.89 81.336 33.654 81.084 33.35 80.9C33.054 80.716 32.718 80.624 32.342 80.624C31.966 80.624 31.626 80.716 31.322 80.9C31.018 81.084 30.782 81.336 30.614 81.656C30.446 81.976 30.362 82.34 30.362 82.748C30.362 83.156 30.446 83.524 30.614 83.852C30.782 84.172 31.014 84.424 31.31 84.608C31.614 84.792 31.958 84.884 32.342 84.884ZM37.249 86V79.508H38.605V86H37.249ZM37.249 78.62V77.06H38.605V78.62H37.249ZM42.5904 86.144C41.9264 86.144 41.3424 85.98 40.8384 85.652C40.3424 85.324 39.9944 84.884 39.7944 84.332L40.8384 83.84C41.0144 84.208 41.2544 84.5 41.5584 84.716C41.8704 84.932 42.2144 85.04 42.5904 85.04C42.9104 85.04 43.1704 84.968 43.3704 84.824C43.5704 84.68 43.6704 84.484 43.6704 84.236C43.6704 84.076 43.6264 83.948 43.5384 83.852C43.4504 83.748 43.3384 83.664 43.2024 83.6C43.0744 83.536 42.9424 83.488 42.8064 83.456L41.7864 83.168C41.2264 83.008 40.8064 82.768 40.5264 82.448C40.2544 82.12 40.1184 81.74 40.1184 81.308C40.1184 80.916 40.2184 80.576 40.4184 80.288C40.6184 79.992 40.8944 79.764 41.2464 79.604C41.5984 79.444 41.9944 79.364 42.4344 79.364C43.0264 79.364 43.5544 79.512 44.0184 79.808C44.4824 80.096 44.8104 80.5 45.0024 81.02L43.9584 81.512C43.8304 81.2 43.6264 80.952 43.3464 80.768C43.0744 80.584 42.7664 80.492 42.4224 80.492C42.1264 80.492 41.8904 80.564 41.7144 80.708C41.5384 80.844 41.4504 81.024 41.4504 81.248C41.4504 81.4 41.4904 81.528 41.5704 81.632C41.6504 81.728 41.7544 81.808 41.8824 81.872C42.0104 81.928 42.1424 81.976 42.2784 82.016L43.3344 82.328C43.8704 82.48 44.2824 82.72 44.5704 83.048C44.8584 83.368 45.0024 83.752 45.0024 84.2C45.0024 84.584 44.8984 84.924 44.6904 85.22C44.4904 85.508 44.2104 85.736 43.8504 85.904C43.4904 86.064 43.0704 86.144 42.5904 86.144ZM49.4151 86.144C48.7671 86.144 48.1911 85.996 47.6871 85.7C47.1911 85.396 46.7951 84.988 46.4991 84.476C46.2111 83.964 46.0671 83.384 46.0671 82.736C46.0671 82.096 46.2111 81.52 46.4991 81.008C46.7871 80.496 47.1831 80.096 47.6871 79.808C48.1911 79.512 48.7671 79.364 49.4151 79.364C49.8551 79.364 50.2671 79.444 50.6511 79.604C51.0351 79.756 51.3671 79.968 51.6471 80.24C51.9351 80.512 52.1471 80.828 52.2831 81.188L51.0951 81.74C50.9591 81.404 50.7391 81.136 50.4351 80.936C50.1391 80.728 49.7991 80.624 49.4151 80.624C49.0471 80.624 48.7151 80.716 48.4191 80.9C48.1311 81.076 47.9031 81.328 47.7351 81.656C47.5671 81.976 47.4831 82.34 47.4831 82.748C47.4831 83.156 47.5671 83.524 47.7351 83.852C47.9031 84.172 48.1311 84.424 48.4191 84.608C48.7151 84.792 49.0471 84.884 49.4151 84.884C49.8071 84.884 50.1471 84.784 50.4351 84.584C50.7311 84.376 50.9511 84.1 51.0951 83.756L52.2831 84.32C52.1551 84.664 51.9471 84.976 51.6591 85.256C51.3791 85.528 51.0471 85.744 50.6631 85.904C50.2791 86.064 49.8631 86.144 49.4151 86.144ZM56.7404 86.144C56.1164 86.144 55.5444 85.996 55.0244 85.7C54.5124 85.404 54.1044 85 53.8004 84.488C53.4964 83.976 53.3444 83.396 53.3444 82.748C53.3444 82.092 53.4964 81.512 53.8004 81.008C54.1044 80.496 54.5124 80.096 55.0244 79.808C55.5364 79.512 56.1084 79.364 56.7404 79.364C57.3804 79.364 57.9524 79.512 58.4564 79.808C58.9684 80.096 59.3724 80.496 59.6684 81.008C59.9724 81.512 60.1244 82.092 60.1244 82.748C60.1244 83.404 59.9724 83.988 59.6684 84.5C59.3644 85.012 58.9564 85.416 58.4444 85.712C57.9324 86 57.3644 86.144 56.7404 86.144ZM56.7404 84.884C57.1244 84.884 57.4644 84.792 57.7604 84.608C58.0564 84.424 58.2884 84.172 58.4564 83.852C58.6324 83.524 58.7204 83.156 58.7204 82.748C58.7204 82.34 58.6324 81.976 58.4564 81.656C58.2884 81.336 58.0564 81.084 57.7604 80.9C57.4644 80.716 57.1244 80.624 56.7404 80.624C56.3644 80.624 56.0244 80.716 55.7204 80.9C55.4244 81.084 55.1884 81.336 55.0124 81.656C54.8444 81.976 54.7604 82.34 54.7604 82.748C54.7604 83.156 54.8444 83.524 55.0124 83.852C55.1884 84.172 55.4244 84.424 55.7204 84.608C56.0244 84.792 56.3644 84.884 56.7404 84.884ZM63.7643 86.144C63.2763 86.144 62.8483 86.036 62.4803 85.82C62.1123 85.596 61.8243 85.288 61.6163 84.896C61.4163 84.496 61.3163 84.036 61.3163 83.516V79.508H62.6723V83.396C62.6723 83.692 62.7323 83.952 62.8523 84.176C62.9723 84.4 63.1403 84.576 63.3563 84.704C63.5723 84.824 63.8203 84.884 64.1003 84.884C64.3883 84.884 64.6403 84.82 64.8563 84.692C65.0723 84.564 65.2403 84.384 65.3603 84.152C65.4883 83.92 65.5523 83.648 65.5523 83.336V79.508H66.8963V86H65.6123V84.728L65.7563 84.896C65.6043 85.296 65.3523 85.604 65.0003 85.82C64.6483 86.036 64.2363 86.144 63.7643 86.144ZM68.4795 86V79.508H69.7755V80.78L69.6195 80.612C69.7795 80.204 70.0355 79.896 70.3875 79.688C70.7395 79.472 71.1475 79.364 71.6115 79.364C72.0915 79.364 72.5155 79.468 72.8835 79.676C73.2515 79.884 73.5395 80.172 73.7475 80.54C73.9555 80.908 74.0595 81.332 74.0595 81.812V86H72.7155V82.172C72.7155 81.844 72.6555 81.568 72.5355 81.344C72.4155 81.112 72.2435 80.936 72.0195 80.816C71.8035 80.688 71.5555 80.624 71.2755 80.624C70.9955 80.624 70.7435 80.688 70.5195 80.816C70.3035 80.936 70.1355 81.112 70.0155 81.344C69.8955 81.576 69.8355 81.852 69.8355 82.172V86H68.4795ZM78.3188 86.072C77.6388 86.072 77.1108 85.88 76.7348 85.496C76.3588 85.112 76.1708 84.572 76.1708 83.876V80.732H75.0308V79.508H75.2108C75.5148 79.508 75.7508 79.42 75.9188 79.244C76.0868 79.068 76.1708 78.828 76.1708 78.524V78.02H77.5268V79.508H79.0028V80.732H77.5268V83.816C77.5268 84.04 77.5628 84.232 77.6348 84.392C77.7068 84.544 77.8228 84.664 77.9828 84.752C78.1428 84.832 78.3508 84.872 78.6068 84.872C78.6708 84.872 78.7428 84.868 78.8228 84.86C78.9028 84.852 78.9788 84.844 79.0508 84.836V86C78.9388 86.016 78.8148 86.032 78.6788 86.048C78.5428 86.064 78.4228 86.072 78.3188 86.072Z" fill="white"/>
<defs>
<linearGradient id="paint0_linear_3034_5869" x1="0" y1="54.5" x2="109" y2="54.5" gradientUnits="userSpaceOnUse">
<stop stop-color="#279B37"/>
<stop offset="1" stop-color="#8ED22F"/>
</linearGradient>
</defs>
</svg>
