<svg width="110" height="47" viewBox="0 0 110 47" fill="none" xmlns="http://www.w3.org/2000/svg">
<path d="M38.3437 44.5562C38.4491 44.4296 38.4175 44.398 38.1225 44.3663C37.8696 44.3452 37.7431 44.2609 37.6588 44.0711C37.5745 43.8918 37.4903 41.8038 37.4165 37.6911C37.269 30.3621 37.2374 29.7715 37.0266 29.9508C36.9002 30.0457 36.8791 30.0141 36.8791 29.7505C36.8791 29.5817 36.9529 29.3814 37.0477 29.297C37.1425 29.2232 37.3638 28.949 37.5429 28.6854C37.9749 28.0421 38.0382 27.9894 38.4913 27.8312C38.8917 27.6836 39.0181 27.5148 38.9233 27.2512C38.8074 26.9454 38.3753 27.0719 38.0276 27.5148C37.7642 27.8312 37.6167 27.9367 37.3743 27.9367C37.1215 27.9367 37.0898 27.9156 37.1847 27.789C37.2795 27.673 37.2795 27.4832 37.1952 26.9876C37.0056 25.9119 37.1952 25.4796 39.2921 22.3687C40.1772 21.04 40.2509 20.7131 39.8505 20.0276C39.3342 19.1418 39.1762 17.56 39.4185 15.5459C39.5976 13.9957 39.5766 14.0273 41.0939 12.8779C43.5911 10.9903 43.8229 10.8532 44.2022 11.0008C44.3392 11.0535 44.3603 12.9095 44.3603 26.9665C44.3603 42.8689 44.3603 42.8689 44.0547 43.354C43.8756 43.6387 43.549 43.9551 43.275 44.1133C42.8325 44.3769 42.7587 44.3874 41.0623 44.3874C39.9559 44.3874 39.3026 44.4296 39.3026 44.4929C39.3026 44.5562 39.2604 44.5983 39.1972 44.5983C39.1445 44.5983 39.0919 44.514 39.0919 44.4191C39.0919 44.2714 39.0602 44.282 38.9233 44.4718C38.8284 44.6089 38.6493 44.7038 38.4913 44.7038C38.27 44.7038 38.2489 44.6721 38.3437 44.5562Z" fill="#328F03"/>
<path d="M30.2937 44.4721C30.1883 44.4088 29.9776 44.2401 29.8406 44.103C29.7141 43.9659 29.5561 43.8605 29.5034 43.8605C29.4507 43.8605 29.3137 43.755 29.1873 43.6285C28.8185 43.2278 28.9344 42.3209 29.398 41.994C29.5034 41.9201 29.6931 41.6354 29.8195 41.3612C30.104 40.7496 30.1672 40.6969 30.7362 40.6969C31.2736 40.6969 31.5054 40.9605 31.5054 41.6038C31.5054 41.8463 31.6529 42.4685 31.8215 42.9958C32.1376 43.9554 32.2219 44.5987 32.0428 44.5987C31.9901 44.5987 31.9269 44.5248 31.8847 44.4405C31.8426 44.3245 31.6845 44.2823 31.3263 44.2928C31.0523 44.2928 30.8837 44.3245 30.9575 44.3561C31.0207 44.3772 31.0839 44.451 31.0839 44.5037C31.0839 44.6408 30.5466 44.6198 30.2937 44.4721Z" fill="#328F03"/>
<path d="M32.7697 44.1873C32.7697 43.9237 32.8435 43.8077 33.1174 43.6495C33.2966 43.5335 33.5811 43.4386 33.7286 43.4386C34.0552 43.4386 34.4029 43.1961 34.3081 43.0379C34.266 42.9641 33.9709 42.9113 33.6232 42.9113C32.8646 42.9113 32.6011 42.7004 32.5063 41.9939C32.4115 41.3717 31.8109 40.0957 31.3683 39.6001C31.1787 39.3997 30.7993 39.1045 30.5043 38.9568C29.8826 38.6194 29.8194 38.5455 29.8194 38.0816C29.8194 37.6386 29.9353 37.4277 30.4832 36.8688C30.7256 36.6263 31.0733 36.2361 31.2419 36.0041C31.4105 35.7721 31.5896 35.5612 31.6212 35.5296C31.7898 35.3925 32.127 34.5699 32.2429 34.0216C32.3377 33.5576 32.3377 33.1463 32.2429 32.25C32.0954 30.8263 32.1691 30.5311 32.7592 30.3623C33.7286 30.0882 35.2986 30.3623 35.2986 30.7947C35.2986 30.9002 35.2248 30.9951 35.1405 30.9951C35.0035 30.9951 34.9825 31.7754 34.9825 37.3539C34.9825 42.247 34.9509 43.7655 34.8455 43.9659C34.7191 44.2084 34.6453 44.2295 33.8761 44.2611C33.423 44.2822 32.9805 44.3455 32.9067 44.4088C32.8013 44.4931 32.7697 44.451 32.7697 44.1873Z" fill="#328F03"/>
<path d="M14.9097 44.2823C1.42248 44.2296 1.42248 44.2296 1.01154 43.9765C0.790267 43.8394 0.47416 43.5019 0.30557 43.2383C-5.02438e-08 42.7638 0 42.7638 0 22.1898C0 1.61575 -5.02438e-08 1.61575 0.30557 1.13066C0.484697 0.845935 0.81134 0.529576 1.0853 0.371395C1.52785 0.107761 1.62268 0.0972151 3.06623 0.0972151C4.11992 0.0972151 4.63623 0.139398 4.72053 0.223761C4.9418 0.445213 4.85751 0.919752 4.53086 1.28884C4.18315 1.68956 3.97241 2.17465 4.06724 2.33283C4.141 2.44883 4.56247 2.3961 5.23683 2.19574C5.47918 2.12192 5.72153 2.09029 5.75314 2.13247C5.79529 2.17465 5.77421 2.37501 5.71099 2.58592C5.52133 3.2081 5.73207 3.419 6.40643 3.23973C6.6277 3.17646 6.8279 3.01828 6.99649 2.75465C7.13347 2.54374 7.3969 2.22738 7.57602 2.04811C7.89213 1.75284 7.9132 1.75284 8.09233 1.92156C8.23985 2.07974 8.27146 2.2801 8.23985 3.13428C8.21877 3.81973 8.15555 4.24154 8.05018 4.39972C7.96589 4.52627 7.44958 4.85318 6.89113 5.12736C5.86905 5.62299 5.52133 5.9288 5.19469 6.61425C5.08932 6.82516 4.78375 7.21534 4.50979 7.47897C3.61415 8.33315 3.87758 8.69169 5.31059 8.57569C6.33267 8.49133 6.41697 8.56514 6.16408 9.30332C5.95334 9.89386 5.96388 10.0837 6.21676 10.2208C6.37482 10.3051 6.56448 10.2946 6.96488 10.1786C7.43904 10.0309 7.54441 10.031 7.87106 10.168C8.42951 10.4 8.62971 10.3684 10.0838 9.78841C11.6749 9.14514 12.0331 8.89205 12.697 7.91133C13.15 7.24697 13.1922 7.13098 13.129 6.76189C13.0447 6.22407 13.2659 5.93935 14.0878 5.52808C14.8992 5.12735 16.3322 4.09391 16.6167 3.69319C16.7958 3.47173 16.996 3.35573 17.3859 3.27137C17.6809 3.2081 18.0602 3.08155 18.2394 2.99719C18.4817 2.87065 18.5976 2.8601 18.7662 2.95501C19.1455 3.15537 18.9664 3.72482 18.3447 4.35755C17.8495 4.86372 17.8284 4.91645 17.9443 5.15899C18.1867 5.64408 18.4079 5.54917 18.7557 4.82154C19.2614 3.767 19.9674 2.71247 20.2835 2.54374C20.6839 2.34338 21 2.52265 21.2318 3.0921C21.7692 4.37863 22.4014 5.71789 22.7702 6.32952C23.2233 7.08879 23.2444 7.1837 23.0442 7.36298C22.8545 7.51061 22.3277 7.33134 21.706 6.88843C21.0422 6.42444 20.0306 5.89717 19.7988 5.89717C19.567 5.89717 19.5354 6.13971 19.7356 6.29789C19.7988 6.35062 20.2414 6.60371 20.705 6.83571C21.1686 7.07825 21.5901 7.32079 21.6428 7.38406C21.706 7.43679 21.8324 7.47897 21.9273 7.47897C22.138 7.47897 23.0442 7.86915 23.1179 7.9957C23.1917 8.1117 22.9704 8.77605 22.8229 8.87096C22.7597 8.91314 22.4752 9.0186 22.1802 9.10296C21.5479 9.29278 20.8947 9.79895 21.0211 10.0099C21.1265 10.1786 22.8967 10.0942 23.1285 9.90441C23.2233 9.82004 23.2865 9.59859 23.2865 9.32441C23.2865 8.72332 23.3708 8.53351 23.6237 8.53351C24.2981 8.53351 25.1516 9.31387 27.8279 12.372C28.1862 12.7833 30.9152 16.6429 31.3472 17.36C32.7908 19.7116 32.9172 20.0807 33.1069 22.2319C33.1807 23.0545 33.2544 23.5712 33.3071 23.4447C33.3703 23.2548 33.3914 23.2654 33.4862 23.5079C33.6548 23.9614 33.7391 24.6468 33.6654 25.0897C33.5916 25.501 33.5916 25.5115 33.1385 25.5115C32.5906 25.5115 31.7582 25.1636 31.3683 24.7628C31.2103 24.5941 31.0522 24.457 31.0206 24.457C30.9258 24.457 30.3673 24.7628 29.8932 25.0897C29.4717 25.3745 29.3452 25.5537 29.145 26.1654C29.1134 26.2708 29.1661 26.777 29.2609 27.3043C29.4506 28.3693 29.419 28.5697 28.8395 29.9406C28.7552 30.141 28.6077 30.5522 28.5128 30.8475C28.418 31.1428 27.9754 32.018 27.5329 32.7984C26.0577 35.4031 25.2148 37.702 25.3096 38.862C25.3939 39.8954 26.5319 41.8463 27.9544 43.3965C28.2599 43.7339 28.4496 44.0292 28.4285 44.1452C28.3969 44.3245 27.8911 44.335 14.9097 44.2823ZM14.5831 12.1084C15.0888 11.7709 15.2785 11.4757 15.2785 11.0011C15.2785 10.5688 14.9518 10.7059 14.2353 11.4229C13.7823 11.8869 13.5821 12.1506 13.6242 12.2666C13.7296 12.5197 14.0351 12.4669 14.5831 12.1084ZM11.3798 11.1382C11.7802 10.8324 11.854 10.6426 11.58 10.6426C11.3482 10.6426 10.7476 11.1804 10.7476 11.3808C10.7476 11.5389 11.0005 11.444 11.3798 11.1382ZM14.151 9.50368C14.4566 9.33496 14.9413 9.05023 15.2363 8.87096C15.5314 8.68114 15.8264 8.53351 15.8791 8.53351C15.9318 8.53351 16.1636 8.37533 16.3954 8.18551C16.9012 7.74261 17.2489 7.55279 17.3859 7.63715C17.4491 7.66879 17.4912 7.95351 17.4912 8.26987C17.4912 8.92369 17.7125 9.16623 18.3026 9.16623C18.6503 9.16623 18.861 8.94478 18.861 8.58624C18.861 8.33315 18.3658 7.77424 17.9759 7.58442C17.6809 7.43679 17.6493 7.37352 17.5966 6.84625C17.5334 6.17135 17.5439 6.17134 16.4375 6.61425C15.5946 6.9517 15.0994 7.26806 14.7516 7.70042C14.6041 7.87969 14.2143 8.30151 13.8771 8.62842C13.2133 9.27169 13.0236 9.53532 13.1184 9.6935C13.2343 9.87277 13.5926 9.8095 14.151 9.50368Z" fill="#328F03"/>
<path d="M34.0025 23.107C33.7813 22.8645 33.7707 22.6641 33.9709 22.6641C34.0868 22.6641 34.0974 22.5587 33.992 22.0103C33.9182 21.6412 33.8023 21.2405 33.7391 21.1139C33.6654 20.9874 33.5389 20.534 33.4652 20.1016C32.9805 17.5707 32.1375 16.0205 29.988 13.7006C29.1556 12.8147 29.124 12.7515 28.7973 11.6864C28.6077 11.0853 28.4285 10.4315 28.4075 10.2417C28.3758 10.0413 28.281 9.7355 28.1967 9.55622C28.123 9.36641 27.9122 8.74423 27.7331 8.16423C27.554 7.58424 27.3116 6.83552 27.1957 6.50861C27.0693 6.17116 26.9744 5.83371 26.9744 5.7388C26.9744 5.3908 27.6172 4.29409 27.9333 4.12536C28.3653 3.87227 28.418 3.61918 28.1019 3.28173C27.9649 3.12355 27.7542 2.82828 27.6488 2.62792C27.5434 2.42756 27.3538 2.14283 27.2273 1.9952C26.9955 1.72102 26.6583 0.940658 26.6583 0.666479C26.6583 0.41339 26.9534 0.37121 27.4064 0.582117C27.8279 0.771934 27.8279 0.771934 28.0703 0.476663C28.2705 0.213029 28.3969 0.170846 29.1345 0.0864835C29.5981 0.044302 30.4411 0.00212186 31.0101 0.00212186C31.9584 -0.0084235 32.0638 0.0126659 32.2956 0.244664C32.4536 0.402844 32.5695 0.66648 32.6117 1.00393C32.6433 1.28866 32.7697 1.95301 32.8751 2.46974C33.1491 3.71409 33.4757 5.53844 33.718 7.1097C33.8234 7.80569 33.9604 8.58605 34.0236 8.84968C34.5505 11.0748 34.6769 11.8024 34.561 12.0028C34.4978 12.1293 34.4029 12.2242 34.3397 12.2242C34.0552 12.2242 33.5073 11.8657 33.0331 11.37C32.7486 11.0748 32.3272 10.7373 32.0848 10.6319C31.853 10.5264 31.5264 10.3049 31.3683 10.1362C31.0522 9.79877 30.4516 8.62823 30.4516 8.33296C30.4516 8.23805 30.4095 8.11151 30.3568 8.05878C30.2093 7.89005 29.714 6.24498 29.714 5.89698C29.714 5.5068 29.5349 5.47516 29.4401 5.8548C29.3768 6.11843 29.6613 7.74242 29.8194 7.95333C29.8615 8.0166 30.0196 8.44896 30.1671 8.9235C30.4095 9.68277 30.5148 9.86204 31.0417 10.3788C31.3683 10.6951 31.695 10.9588 31.7582 10.9588C31.8319 10.9588 32.1691 11.2224 32.5063 11.5388C32.854 11.8657 33.4125 12.3191 33.7497 12.5617C34.424 13.0467 34.5505 13.3209 34.3503 13.9009C34.2765 14.1118 34.2027 15.0187 34.1711 15.9151C34.1184 17.4125 34.1395 17.6023 34.3503 18.1823C34.4767 18.5303 34.6453 19.0892 34.7296 19.4267C34.8139 19.7641 34.9298 20.1438 34.993 20.2598C35.1616 20.5656 35.3091 21.7994 35.2354 22.2107C35.1932 22.4427 35.0668 22.6219 34.8666 22.7379C34.698 22.8434 34.561 23.0016 34.561 23.107C34.561 23.3601 34.2238 23.3496 34.0025 23.107Z" fill="#328F03"/>
<path d="M99.9425 22.6326C99.7634 22.4955 99.7213 22.3162 99.6897 21.5042C99.6686 20.9137 99.7107 20.4286 99.7845 20.2388C99.932 19.8908 100.332 19.7115 100.965 19.7115C101.534 19.7115 101.955 19.4373 102.155 18.9417C102.345 18.4671 102.292 18.2562 101.102 14.0697C100.122 10.6108 99.9004 9.83048 99.6897 9.06067C99.5843 8.68104 99.363 7.90068 99.205 7.32068C98.7624 5.71779 98.7519 5.63342 99.1312 5.43306C99.5211 5.2327 101.692 5.20106 102.334 5.36979C102.809 5.50688 102.735 5.25379 103.63 9.58794C103.989 11.2963 104.221 12.3297 104.263 12.3297C104.305 12.3297 104.537 11.2963 104.895 9.58794C105.801 5.21161 105.717 5.50688 106.233 5.36979C106.486 5.29597 107.287 5.26434 108.182 5.28543C109.552 5.31706 109.721 5.33816 109.858 5.51743C110.111 5.86542 110.026 6.3716 109.605 7.18359C109.384 7.60541 109.067 8.42795 108.909 9.00794C108.456 10.653 108.014 12.3086 107.793 13.1734C107.687 13.6057 107.519 14.249 107.424 14.597C107.329 14.945 107.16 15.5882 107.055 16.0206C106.043 20.0173 105.369 21.4515 104.168 22.2107C103.673 22.5271 102.998 22.6536 101.365 22.7275C100.385 22.7802 100.111 22.7591 99.9425 22.6326Z" fill="#328F03"/>
<path d="M37.2162 22.1159C37.0476 21.9472 37.0581 21.4727 37.2372 21.0298C37.3637 20.745 37.4585 20.6607 37.6692 20.6607C38.2066 20.6607 38.4279 21.8734 37.9327 22.137C37.6692 22.2741 37.3742 22.2741 37.2162 22.1159Z" fill="#328F03"/>
<path d="M36.3313 18.9732C35.678 18.5935 35.1933 16.4423 35.1828 13.9009C35.1722 10.7478 35.0142 8.1009 34.7929 7.47872C34.6876 7.16236 34.5611 6.66673 34.519 6.37146C34.4768 6.08674 34.3609 5.53838 34.245 5.15874C34.0448 4.48384 33.8341 3.60857 33.5496 2.36422C33.3704 1.57332 33.3704 0.856234 33.539 0.518782C33.7708 0.0653312 34.2661 0.012605 38.4598 0.00205964C41.7999 0.00205964 42.3795 0.0231484 42.8853 0.181329C44.0654 0.560962 44.255 1.64713 43.4332 3.34494C42.9379 4.36784 41.3047 7.62636 41.1783 7.84781C41.1151 7.96381 40.6304 8.91289 40.093 9.95688C39.1447 11.834 38.7337 12.8252 38.4176 14.0696C38.3333 14.4176 38.0699 15.2085 37.8486 15.8201C37.5536 16.6005 37.4061 17.191 37.3534 17.8026C37.2586 18.931 36.9214 19.3106 36.3313 18.9732Z" fill="#328F03"/>
<path d="M66.2665 18.7836C65.4341 18.5622 64.6227 18.0138 64.3066 17.4338C63.7903 16.5374 63.7482 15.9785 63.7482 10.7164C63.7482 6.0448 63.7587 5.80226 63.9484 5.57026C64.1486 5.32772 64.2013 5.31717 65.7397 5.31717C67.12 5.31717 67.3518 5.33826 67.5098 5.50699C67.689 5.67571 67.6995 6.06589 67.7627 10.3051C67.7943 13.2578 67.8576 15.0084 67.9313 15.1876C67.9945 15.3353 68.2685 15.5673 68.5319 15.7149C69.0166 15.968 69.0166 15.968 69.5013 15.7149C69.7647 15.5673 70.0387 15.3353 70.1019 15.1876C70.1757 15.0084 70.2389 13.2578 70.2705 10.3051C70.3337 6.06589 70.3443 5.67571 70.5234 5.50699C70.6814 5.33826 70.9133 5.31717 72.2936 5.31717C73.832 5.31717 73.8847 5.32772 74.0849 5.57026C74.2745 5.80226 74.2851 6.0659 74.2851 11.7393C74.2851 15.5884 74.2429 17.7923 74.1692 18.056C74.0216 18.6149 73.6318 18.7625 72.3568 18.7625C71.1767 18.7625 70.7552 18.636 70.5339 18.2247C70.4496 18.056 70.3548 17.9189 70.3337 17.9189C70.3021 17.9189 70.0282 18.0876 69.7226 18.288C69.1431 18.6676 68.0999 18.9734 67.3834 18.9629C67.1516 18.9629 66.6458 18.8785 66.2665 18.7836Z" fill="#328F03"/>
<path d="M76.3187 18.6043C76.0658 18.4989 75.9604 18.3618 75.8761 18.056C75.8024 17.7923 75.7602 15.5884 75.7602 11.7393C75.7602 6.0659 75.7708 5.80226 75.9604 5.57026C76.1606 5.32772 76.2133 5.31717 77.5937 5.31717C79.0161 5.31717 79.0267 5.31717 79.2901 5.61244C79.6167 5.94989 79.7537 5.97098 80.112 5.68626C80.2595 5.57026 80.6283 5.35935 80.9444 5.21172C81.4185 4.99026 81.6609 4.94808 82.5565 4.94808C83.4943 4.94808 83.6734 4.97972 84.253 5.2539C85.1065 5.65463 85.5701 6.21353 85.9178 7.26806C86.1918 8.10115 86.1917 8.10115 86.1917 12.8782C86.1917 15.9258 86.1496 17.8029 86.0759 18.056C85.9178 18.6149 85.5385 18.7625 84.1897 18.7625C82.841 18.7625 82.4617 18.6149 82.3036 18.056C82.2299 17.8029 82.1877 16.0313 82.1877 13.2262C82.1877 9.2295 82.1667 8.76551 82.0086 8.53351C81.7557 8.16442 81.6609 8.11169 81.1657 8.11169C80.5545 8.11169 80.2489 8.26987 79.9855 8.74442C79.7748 9.13459 79.7643 9.25059 79.7643 13.3949C79.7643 16.084 79.7221 17.8029 79.6483 18.056C79.564 18.3723 79.4587 18.4989 79.1847 18.6149C78.7 18.8152 76.7823 18.8047 76.3187 18.6043Z" fill="#328F03"/>
<path d="M88.3307 18.6043C88.0779 18.4989 87.9725 18.3618 87.8882 18.056C87.8144 17.7923 87.7723 14.9556 87.7723 9.5775C87.7723 2.77574 87.7934 1.47866 87.9198 1.29939C88.0568 1.12011 88.2148 1.09902 89.7743 1.09902C91.3338 1.09902 91.4918 1.12011 91.6288 1.29939C91.7447 1.46811 91.7763 2.19574 91.7763 5.33826C91.7763 9.63023 91.7763 9.65131 92.4507 8.54405C93.0302 7.60551 94.6002 5.54917 94.8636 5.40153C95.1586 5.24335 97.9193 5.21172 98.2143 5.3699C98.678 5.62299 98.4462 6.18189 97.0869 7.98515C95.5274 10.052 95.2535 10.4528 95.2535 10.6742C95.2535 10.9168 95.8119 12.0451 96.3493 12.8993C96.539 13.1946 96.971 13.9644 97.3082 14.5971C97.6453 15.2404 98.1195 16.0945 98.3619 16.4953C99.0362 17.6236 99.1627 17.9083 99.1311 18.2142C99.0784 18.6571 98.7307 18.7625 97.2028 18.7625C95.2746 18.7625 95.3378 18.8152 94.1787 16.6534C93.6624 15.6938 93.125 14.6604 92.988 14.3651C92.8405 14.0593 92.6614 13.8062 92.5771 13.8062C92.4928 13.8062 92.2821 14.0593 92.1029 14.3756C91.7868 14.924 91.7763 14.9767 91.7763 16.2949C91.7763 18.0032 91.6709 18.4145 91.1968 18.6149C90.7121 18.8152 88.7944 18.8047 88.3307 18.6043Z" fill="#328F03"/>
<path d="M53.4536 18.4989C53.2008 18.3934 53.0954 18.2563 53.0111 17.9505C52.9373 17.6869 52.8952 14.8607 52.8952 9.51423C52.8952 1.6052 52.8952 1.46811 53.1059 1.25721C53.3061 1.05684 53.4536 1.0463 57.8791 1.0463C61.546 1.05684 62.4627 1.07793 62.6207 1.19393C62.8736 1.39429 63.0106 1.92156 63.0106 2.73356C63.0106 3.61937 62.8631 4.14663 62.5575 4.29427C62.41 4.37863 61.4301 4.43136 59.7126 4.44191C57.2575 4.47354 57.0783 4.48409 56.9413 4.67391C56.7306 4.96918 56.7306 7.35242 56.9413 7.64769C57.0783 7.83751 57.2785 7.84806 59.6283 7.90079C61.8726 7.94297 62.1782 7.9746 62.3468 8.14333C62.5048 8.30151 62.5364 8.52296 62.5364 9.58805C62.5364 10.6531 62.5048 10.8746 62.3468 11.0328C62.1782 11.2015 61.8726 11.2331 59.5545 11.2753C56.9519 11.328 56.9519 11.328 56.8992 14.6498C56.8571 17.0014 56.8044 18.0349 56.7201 18.1931C56.6463 18.3196 56.4356 18.4778 56.2565 18.5411C55.7718 18.7098 53.8646 18.6782 53.4536 18.4989Z" fill="#328F03"/>
<path d="M40.6406 11.5178C40.4826 11.3597 40.5879 10.864 40.8724 10.4C41.2201 9.86223 43.7595 7.68988 44.0546 7.68988C44.3074 7.68988 44.3601 7.90079 44.3601 8.9026C44.3601 10.0099 44.2442 10.1575 42.9376 10.7797C42.4213 11.0222 41.8734 11.3069 41.7259 11.4124C41.473 11.5917 40.7776 11.6655 40.6406 11.5178Z" fill="#328F03"/>
<path d="M27.4593 10.9695C27.3012 10.864 27.08 10.632 26.9851 10.4633C26.8798 10.2946 26.2581 9.56695 25.5943 8.84987C23.8241 6.92007 23.3815 6.36116 22.7914 5.3699C22.233 4.43136 21.6535 2.83901 21.7588 2.52265C21.8537 2.23792 22.2119 2.04811 23.0759 1.79502C24.1191 1.51029 25.0042 1.1623 25.099 1.01466C25.1306 0.961936 25.1201 0.793208 25.0674 0.656118C24.941 0.329212 24.941 0.0972151 25.0674 0.0972151C25.1201 0.0972151 25.4573 0.371393 25.805 0.708845C26.4477 1.32048 26.9746 2.24847 26.9746 2.76519C26.9746 2.90228 27.0694 3.14482 27.1853 3.29246C27.4804 3.66155 27.4487 3.87246 27.0273 4.67391C26.8271 5.06409 26.6585 5.52808 26.6585 5.71789C26.6585 6.3928 26.964 7.55279 27.4277 8.6706C28.1863 10.4739 28.1969 11.4546 27.4593 10.9695Z" fill="#328F03"/>
<path d="M7.1966 8.15373C6.98586 8.05882 7.03854 7.82682 7.33357 7.5421C7.597 7.3101 7.60753 7.23628 7.54431 6.70902C7.49163 6.24502 7.5127 6.08683 7.64968 5.96029C7.88149 5.71775 8.49263 5.74938 8.75605 6.01302C8.97733 6.23447 9.78867 6.52974 10.1996 6.52974C10.5684 6.52974 10.4841 6.20284 9.98887 5.62284C9.54632 5.12721 9.53578 5.10612 9.54632 4.38903C9.5674 3.79849 9.60954 3.61922 9.80974 3.40831C10.2628 2.93377 10.5579 3.09195 10.8107 3.94613C10.874 4.15703 10.9899 4.27303 11.1479 4.29412C11.3376 4.32576 11.4219 4.2414 11.5799 3.87231C11.9382 3.04977 12.5704 2.65959 12.9603 3.04977C13.1499 3.23959 13.171 3.37668 13.1605 4.29412C13.1394 5.58066 13.0762 5.77047 12.5177 6.43483C11.8434 7.25737 11.5483 7.51046 10.9267 7.82682C10.2944 8.14318 9.85189 8.18537 9.54632 7.95337C9.2829 7.75301 8.81928 7.75301 8.43995 7.95337C8.10277 8.12209 7.38626 8.23809 7.1966 8.15373Z" fill="#328F03"/>
<path d="M42.0845 7.54198C42.0213 7.2678 42.1899 6.86708 42.6851 6.13945C42.8537 5.89691 43.1171 5.40127 43.2752 5.03219C43.6334 4.17801 43.9706 3.79838 44.1919 3.99874C44.3183 4.09365 44.3605 4.34674 44.3605 5.05328C44.3605 5.89691 44.3394 6.00236 44.0655 6.38199C43.8969 6.60345 43.5175 7.01472 43.212 7.29944C42.5798 7.85835 42.1899 7.95325 42.0845 7.54198Z" fill="#328F03"/>
<path d="M33.9289 46.9185C32.6223 46.7497 30.8416 45.9694 28.9871 44.7567C27.5436 43.8076 26.4056 42.4789 25.531 40.7178C25.0779 39.8003 25.0252 39.6105 24.9936 38.8512C24.9199 37.3011 25.6364 35.2869 27.2169 32.4818C27.6595 31.7015 28.102 30.8262 28.1968 30.531C28.2917 30.2357 28.4392 29.8244 28.5235 29.6241C29.0398 28.4113 29.0714 28.2426 28.9028 27.399C28.7342 26.5448 28.7764 25.7855 29.0187 25.3321C29.103 25.1634 29.3981 24.8892 29.6825 24.7099C30.8838 23.9296 31.1682 23.8979 31.6951 24.4463C31.9691 24.731 32.8647 25.195 33.1386 25.195C33.3283 25.195 33.3915 24.731 33.2756 24.2248C33.1703 23.7292 33.2335 23.4761 33.5812 23.0016C33.8657 22.6219 34.1291 22.5692 34.382 22.8539C34.6033 23.0965 34.6033 23.4656 34.4031 23.8241C34.2029 24.1721 34.2029 24.9419 34.4031 25.9754C34.4979 26.4815 34.5401 27.0088 34.4979 27.3146C34.4136 27.9579 34.5822 28.4008 34.9826 28.5695C35.2355 28.675 35.4041 28.6539 36.0047 28.4641C36.6369 28.2637 36.8055 28.1372 37.4377 27.4728C38.1121 26.7768 38.1858 26.7241 38.6073 26.7241C38.8813 26.7241 39.1236 26.7873 39.229 26.9033C39.5978 27.2724 39.366 27.9368 38.797 28.1477C38.3544 28.3059 38.3017 28.3586 37.8592 28.9913C37.2164 29.9193 35.8993 30.9949 35.4041 30.9949C35.246 30.9949 34.9088 30.9 34.656 30.784C34.1397 30.552 33.6444 30.5204 33.0754 30.6786C32.538 30.8262 32.4748 31.0582 32.5907 32.3658C32.7172 33.6313 32.5907 34.6331 32.2325 35.3502C32.106 35.5927 31.9796 35.8142 31.9374 35.8458C31.9058 35.8775 31.7267 36.0884 31.5581 36.3204C31.3895 36.5524 31.0418 36.9425 30.7995 37.1851C29.967 38.0182 29.9776 38.1974 30.8416 38.6509C31.1577 38.8196 31.5581 39.1254 31.7267 39.3258C32.1587 39.8425 32.7382 41.0869 32.8225 41.6774C32.9174 42.3734 33.2019 42.6265 33.8025 42.5421C34.1291 42.4894 34.3293 42.521 34.519 42.6476C35.0353 42.985 34.7192 43.7548 34.0554 43.7548C33.7287 43.7548 33.3072 43.9868 32.9384 44.377C32.6329 44.7039 32.3168 44.7777 32.0533 44.609C31.8426 44.4825 31.1893 42.4367 31.1893 41.9094C31.1893 40.9709 30.5255 40.7283 30.1989 41.5509C30.104 41.7829 29.9144 42.0887 29.7668 42.2363C29.1979 42.8058 29.1979 43.2698 29.7774 43.5334C29.9249 43.5967 30.1462 43.7443 30.2726 43.8708C30.5676 44.145 31.8215 44.957 32.4538 45.2734C33.2229 45.6636 34.4558 45.8955 35.383 45.8428C36.7949 45.7479 37.817 45.2523 38.4703 44.3559C38.8496 43.8287 38.818 43.5545 38.2912 43.0167C37.9119 42.6159 37.8276 42.3101 38.0804 42.2152C38.523 42.0465 39.5135 43.1854 39.5135 43.8603C39.5135 44.2505 38.9761 45.1468 38.4176 45.7163C37.3113 46.813 35.952 47.1821 33.9289 46.9185Z" fill="#F7FBF6"/>
<path d="M97.5719 35.5296C97.319 35.2766 97.298 34.7177 97.5298 34.3907C97.6246 34.2537 97.8459 34.1377 98.0988 34.0955C98.6783 34.0006 99.0892 33.7158 99.3 33.2729C99.5002 32.8511 99.4791 32.7668 98.7204 30.1515C98.6151 29.7719 98.3095 28.7068 98.0461 27.7788C97.7827 26.8508 97.4244 25.617 97.2558 25.037C96.7711 23.3919 96.8449 23.0967 97.7616 23.0018C98.4675 22.9385 99.0155 23.0545 99.1419 23.2865C99.2578 23.4868 99.5107 24.5836 99.9427 26.7243C100.312 28.4959 100.448 28.7806 100.891 28.6119C101.091 28.5275 101.039 28.7806 101.692 24.9843C101.945 23.4657 101.955 23.4552 102.282 23.1916C102.493 23.0334 102.714 22.9807 103.23 22.9807C104.379 22.9807 104.516 23.2127 104.094 24.4148C103.978 24.7523 103.799 25.3955 103.683 25.8279C103.578 26.2603 103.336 27.1883 103.156 27.8843C102.651 29.8141 102.229 31.5013 102.092 32.1446C101.755 33.7686 100.933 35.1395 100.059 35.5402C99.4159 35.8249 97.8669 35.8249 97.5719 35.5296Z" fill="#F7FBF6"/>
<path d="M67.8472 32.7457C66.8778 32.3766 66.2035 31.8704 65.8979 31.2799C65.1287 29.8141 65.1392 25.9755 65.9084 24.4676C66.2351 23.8243 66.6144 23.4763 67.3836 23.1177C67.9421 22.8541 68.1317 22.8225 69.0695 22.8225C70.0073 22.8225 70.1969 22.8541 70.7554 23.1177C71.5246 23.4763 71.9039 23.8243 72.2306 24.4676C72.9998 25.9755 72.9998 29.6664 72.2306 31.206C71.9145 31.8282 71.5246 32.1868 70.7554 32.5453C70.2286 32.7879 69.9546 32.8406 69.1749 32.8617C68.5637 32.8828 68.0896 32.8406 67.8472 32.7457ZM69.7544 30.9213C70.1864 30.5206 70.3866 29.561 70.3866 27.8315C70.3866 25.4588 69.9967 24.457 69.0695 24.457C68.1423 24.457 67.7524 25.4588 67.7524 27.8315C67.7524 30.2042 68.1423 31.206 69.0695 31.206C69.3224 31.206 69.5331 31.1111 69.7544 30.9213Z" fill="#F7FBF6"/>
<path d="M92.0925 32.7351C90.6911 32.3344 90.0273 31.5013 89.6585 29.6453C89.3424 28.0635 89.4267 26.5977 89.9324 24.921C90.1537 24.1723 90.7649 23.5079 91.5867 23.1283C92.1768 22.8541 92.3665 22.8225 93.3042 22.8225C94.1788 22.833 94.4528 22.8752 94.9164 23.0756C95.9595 23.5501 96.5707 24.5414 96.7287 26.0599C96.8763 27.473 96.8657 27.6944 96.6234 27.937C96.4232 28.1373 96.2757 28.1479 94.3685 28.1479C92.3138 28.1479 92.3138 28.1479 92.0925 28.4432C91.6183 29.0337 92.0293 30.7948 92.7247 31.1533C93.4623 31.533 93.9786 31.2799 94.4106 30.3097C94.5687 29.9511 94.7794 29.6242 94.8848 29.5821C95.1904 29.4661 96.3599 29.5082 96.4969 29.6453C96.8446 29.9933 96.4337 31.301 95.7488 32.0286C95.085 32.714 93.2937 33.062 92.0925 32.7351ZM94.4422 26.6399C94.948 26.2814 94.653 24.9843 93.9681 24.5625C93.2516 24.1301 92.4402 24.4254 92.0714 25.269C91.8291 25.8174 91.8712 26.429 92.1663 26.6399C92.2716 26.7243 92.7036 26.777 93.3042 26.777C93.9049 26.777 94.3369 26.7243 94.4422 26.6399Z" fill="#F7FBF6"/>
<path d="M53.3167 32.5769C53.1059 32.366 53.1059 32.2289 53.1059 26.5134C53.1059 20.028 53.1059 20.0596 53.7381 19.8276C54.2334 19.6589 56.1932 19.68 56.6252 19.8592C57.1205 20.0701 57.2153 20.3654 58.0056 24.5097C58.5851 27.5679 58.6589 27.8315 58.8485 27.8315C59.0382 27.8315 59.1119 27.5468 59.6915 24.5097C60.2078 21.7785 60.3132 21.3039 60.5555 20.5236C60.7662 19.8381 61.0718 19.7116 62.5364 19.7116C63.8746 19.7116 64.2961 19.8487 64.4752 20.3443C64.5595 20.5869 64.5911 22.4428 64.5911 26.5239C64.5911 33.3678 64.707 32.7878 63.3794 32.7878C62.0834 32.7878 62.1676 33.0937 62.1676 28.4115C62.1676 24.9948 62.1466 24.457 62.0096 24.457C61.6829 24.457 61.5249 24.9843 60.7452 28.7173C60.5976 29.4028 60.4607 30.0039 60.4291 30.0355C60.408 30.0777 60.3342 30.4151 60.2815 30.7948C60.2183 31.1639 60.1024 31.7122 60.0076 32.018C59.8706 32.4609 59.7863 32.5769 59.5123 32.6719C58.7853 32.9249 57.9318 32.7351 57.7632 32.2817C57.7 32.1235 57.5946 31.7122 57.5314 31.3642C57.4682 31.0162 57.3418 30.4468 57.2575 30.0988C57.1837 29.7508 57.0151 29.0126 56.8992 28.4643C56.1722 24.9737 56.0141 24.457 55.6875 24.457C55.5505 24.457 55.5294 24.9948 55.5294 28.4115C55.5294 33.0937 55.6137 32.7878 54.3177 32.7878C53.6644 32.7878 53.4852 32.7457 53.3167 32.5769Z" fill="#F7FBF6"/>
<path d="M73.6529 32.4715C73.4527 32.2711 73.4421 32.1235 73.4421 27.9264C73.4421 23.6239 73.4632 23.2865 73.8004 23.065C73.8636 23.0228 74.2113 22.9807 74.5696 22.9807C75.1069 22.9807 75.265 23.0228 75.5284 23.2443C75.9499 23.5923 76.3187 23.5712 76.9614 23.1705C77.4461 22.8541 77.5726 22.8225 78.2891 22.8225C79.4798 22.833 80.2173 23.2865 80.5545 24.2356C80.681 24.6152 80.7126 25.3428 80.7126 28.4748C80.7126 32.946 80.7863 32.6824 79.5535 32.6824C78.3312 32.6824 78.3945 32.8828 78.3945 28.9388C78.3945 25.3639 78.3628 25.0897 77.8571 24.7312C77.541 24.5097 76.7191 24.5097 76.403 24.7312C75.8972 25.0897 75.8656 25.3639 75.8656 28.9388C75.8656 32.8933 75.9394 32.6824 74.6539 32.6824C74.0006 32.6824 73.8214 32.6402 73.6529 32.4715Z" fill="#F7FBF6"/>
<path d="M81.9771 32.4717C81.7663 32.2608 81.7663 32.1237 81.7663 26.2499C81.7663 19.2056 81.6504 19.8173 82.9781 19.8173C84.2425 19.8173 84.1898 19.6696 84.1898 23.0863C84.1898 25.9336 84.1898 25.9336 84.4954 25.9336C84.7588 25.9336 84.9485 25.7438 85.9706 24.4678C86.6449 23.6241 87.235 22.9809 87.372 22.9387C88.0674 22.7594 89.1422 22.9387 89.1422 23.2445C89.1422 23.3289 88.6996 23.9827 88.1517 24.6998C87.0875 26.1023 86.8241 26.5347 86.8241 26.8827C86.8241 27.0092 87.098 27.6103 87.4457 28.2325C87.7829 28.8546 88.3098 29.8565 88.6153 30.4575C88.9104 31.0586 89.2581 31.6808 89.374 31.839C89.4899 31.9972 89.5636 32.2397 89.5426 32.3768C89.511 32.6193 89.4793 32.6299 88.5205 32.6615C87.5406 32.6931 87.5195 32.6826 87.2034 32.3768C87.0243 32.1975 86.5396 31.3961 86.1392 30.5735C85.7071 29.6983 85.3278 29.0761 85.2225 29.0339C84.8853 28.9285 84.6535 29.0866 84.4216 29.5717C84.232 29.9724 84.1898 30.2361 84.1898 31.1535C84.1898 32.5877 84.1161 32.6826 82.9781 32.6826C82.3248 32.6826 82.1457 32.6404 81.9771 32.4717Z" fill="#F7FBF6"/>
<path d="M87.9303 42.3947C87.414 42.1627 86.9293 41.6143 86.9293 41.2663C86.9293 40.9605 87.2033 40.8234 87.4456 41.0027C87.5405 41.066 87.9093 41.2663 88.2781 41.4456C88.8681 41.7409 88.9735 41.762 89.258 41.646C89.8164 41.414 90.0904 41.1292 90.0904 40.7918C90.0904 40.4016 89.9218 40.3278 89.4266 40.5387C88.8997 40.7602 88.5415 40.7391 87.9303 40.4438C87.2771 40.138 87.0136 39.8532 86.6764 39.1151C86.413 38.5351 86.413 38.5351 86.413 39.3049C86.4025 40.022 86.3814 40.1063 86.0969 40.3911C85.9283 40.5598 85.6754 40.6969 85.5385 40.6969C85.4015 40.6969 85.0643 40.8129 84.7798 40.9605C84.1687 41.2769 83.8631 41.2874 83.2941 41.0238C82.7567 40.7812 81.9875 39.9482 81.9032 39.5263C81.84 39.1994 81.84 39.1994 81.703 39.6107C81.6293 39.8322 81.3342 40.2329 81.0498 40.5071C80.0593 41.4456 79.2058 41.4351 78.2259 40.4438C77.0984 39.326 77.0984 37.5333 78.2259 36.4155C79.2269 35.4031 80.0909 35.4031 81.1024 36.426C81.4607 36.774 81.682 37.1009 81.7241 37.3118C81.7979 37.6598 81.7979 37.6598 81.9348 37.2485C82.114 36.7213 82.978 35.8987 83.5365 35.73C84.0949 35.5613 84.6744 35.7195 85.1908 36.1729C85.549 36.4893 85.549 36.4893 85.5806 35.5718C85.6017 34.8337 85.6438 34.6333 85.8019 34.5384C85.9283 34.454 86.0337 34.454 86.1707 34.5384C86.3182 34.6438 86.3603 34.8758 86.4025 36.2256C86.4552 37.7231 86.4657 37.7758 86.6027 37.3856C86.8977 36.5315 88.0041 35.6351 88.7733 35.6351C89.4898 35.6351 90.4592 36.3733 90.9017 37.2485C91.1019 37.6493 91.1019 37.6493 91.3548 37.1115C91.7342 36.31 92.6403 35.6351 93.3568 35.6351C94.674 35.6351 96.1491 37.7125 95.3483 38.4402C95.1586 38.6194 94.9479 38.6405 93.7256 38.6511C92.261 38.6616 91.987 38.7354 91.987 39.1151C91.987 39.4103 92.4507 39.8954 92.9354 40.1169C93.3568 40.3067 93.3674 40.3067 93.8942 40.0536C94.1998 39.9165 94.558 39.6529 94.695 39.4631C94.9795 39.094 95.2219 39.0202 95.3167 39.2733C95.4958 39.7373 94.9374 40.4965 94.1471 40.8656C93.1988 41.3085 92.6403 41.1503 91.6709 40.1802C91.0387 39.558 91.0387 39.558 91.0387 40.3383C91.0387 41.2031 90.9228 41.53 90.4381 41.9834C89.7954 42.595 88.7417 42.7638 87.9303 42.3947ZM80.3543 39.9376C80.8285 39.5158 81.0287 39.0729 81.0287 38.4296C81.0287 37.7864 80.8285 37.3435 80.3543 36.9216C79.8485 36.4787 79.4692 36.4787 78.9634 36.9216C78.4893 37.3435 78.2891 37.7864 78.2891 38.4296C78.2891 39.0729 78.4893 39.5158 78.9634 39.9376C79.4692 40.3805 79.8485 40.3805 80.3543 39.9376ZM84.7587 39.8743C85.1486 39.5053 85.3488 39.0202 85.3488 38.4296C85.3488 37.7864 85.1486 37.3435 84.6744 36.9216C84.1687 36.4787 83.7893 36.4787 83.2836 36.9216C82.8094 37.3435 82.6092 37.7864 82.6092 38.4296C82.6092 39.0729 82.8094 39.5158 83.2941 39.9482C83.6418 40.2434 83.7367 40.2856 84.0738 40.2223C84.2846 40.1802 84.5901 40.022 84.7587 39.8743ZM89.3633 39.4947C89.6057 39.326 89.827 39.0413 89.9745 38.6933C90.2063 38.166 90.2063 38.1554 90.0061 37.7125C89.7638 37.1747 89.121 36.5842 88.7733 36.5842C88.4256 36.5842 87.7828 37.1747 87.5405 37.7125C87.3403 38.1554 87.3403 38.166 87.5721 38.6933C87.8144 39.2627 88.3729 39.7478 88.7733 39.7478C88.8892 39.7478 89.1526 39.6318 89.3633 39.4947ZM94.5791 37.6914C94.7266 37.3224 93.8942 36.5842 93.3358 36.5842C92.8405 36.5842 92.0503 37.4278 92.2505 37.7442C92.2821 37.8074 92.7878 37.8496 93.4201 37.8496C94.3052 37.8496 94.537 37.818 94.5791 37.6914Z" fill="#DAEFC6"/>
<path d="M73.79 40.6969C73.6003 40.5914 73.4212 40.3805 73.3896 40.254C73.358 40.1169 73.3474 38.8093 73.358 37.3329C73.3896 34.918 73.4107 34.6438 73.5687 34.5384C73.7057 34.454 73.8111 34.454 73.9375 34.5384C74.1061 34.6438 74.1377 34.9286 74.1799 37.1958C74.222 39.0834 74.2642 39.7689 74.3695 39.8743C74.4644 39.9692 74.9491 40.0325 75.8342 40.0642C76.9511 40.1063 77.1829 40.1485 77.2777 40.3067C77.362 40.4332 77.362 40.5387 77.2777 40.6758C77.1723 40.834 76.9511 40.8551 75.6445 40.8867C74.2852 40.9078 74.0956 40.8867 73.79 40.6969Z" fill="#DAEFC6"/>
</svg>
