<svg width="157" height="52" viewBox="0 0 157 52" fill="none" xmlns="http://www.w3.org/2000/svg">
<rect width="157" height="52" rx="8" fill="white" fill-opacity="0.1"/>
<path d="M16.746 18.626V13.768H16.718L13.414 18.626H16.746ZM17.866 18.626H19.21V19.676H17.866V22H16.746V19.676H12.392V18.528L16.914 12.074H17.866V18.626ZM20.6613 20.446H22.2153V22H20.6613V20.446ZM28.9118 14.608C28.8558 14.16 28.6831 13.8007 28.3938 13.53C28.1044 13.2593 27.7218 13.124 27.2458 13.124C26.7418 13.124 26.3358 13.25 26.0278 13.502C25.7198 13.7447 25.4771 14.0573 25.2998 14.44C25.1318 14.8133 25.0151 15.2193 24.9498 15.658C24.8844 16.0967 24.8471 16.5073 24.8378 16.89L24.8658 16.918C25.1458 16.4607 25.4911 16.1293 25.9018 15.924C26.3218 15.7187 26.8024 15.616 27.3438 15.616C27.8198 15.616 28.2444 15.7 28.6178 15.868C29.0004 16.0267 29.3178 16.2507 29.5698 16.54C29.8311 16.8293 30.0318 17.17 30.1718 17.562C30.3118 17.954 30.3818 18.3787 30.3818 18.836C30.3818 19.2 30.3258 19.578 30.2138 19.97C30.1018 20.362 29.9151 20.7213 29.6538 21.048C29.4018 21.3653 29.0611 21.6313 28.6318 21.846C28.2118 22.0513 27.6891 22.154 27.0638 22.154C26.3264 22.154 25.7338 22.0047 25.2858 21.706C24.8378 21.4073 24.4924 21.0247 24.2498 20.558C24.0071 20.0913 23.8438 19.578 23.7598 19.018C23.6851 18.458 23.6478 17.9167 23.6478 17.394C23.6478 16.7127 23.7038 16.0547 23.8158 15.42C23.9371 14.776 24.1378 14.2067 24.4178 13.712C24.6978 13.2173 25.0711 12.8207 25.5378 12.522C26.0044 12.2233 26.5924 12.074 27.3018 12.074C28.1231 12.074 28.7764 12.2933 29.2618 12.732C29.7471 13.1613 30.0271 13.7867 30.1018 14.608H28.9118ZM27.1198 16.666C26.7838 16.666 26.4898 16.7267 26.2378 16.848C25.9858 16.96 25.7711 17.1187 25.5938 17.324C25.4164 17.52 25.2811 17.758 25.1878 18.038C25.1038 18.3087 25.0618 18.598 25.0618 18.906C25.0618 19.214 25.1084 19.5033 25.2018 19.774C25.2951 20.0447 25.4258 20.278 25.5938 20.474C25.7711 20.67 25.9858 20.8287 26.2378 20.95C26.4991 21.062 26.7931 21.118 27.1198 21.118C27.4464 21.118 27.7311 21.062 27.9738 20.95C28.2258 20.8287 28.4358 20.6653 28.6038 20.46C28.7718 20.2547 28.8978 20.0213 28.9818 19.76C29.0751 19.4893 29.1218 19.2093 29.1218 18.92C29.1218 18.612 29.0798 18.3227 28.9958 18.052C28.9211 17.772 28.7998 17.534 28.6318 17.338C28.4638 17.1327 28.2538 16.9693 28.0018 16.848C27.7498 16.7267 27.4558 16.666 27.1198 16.666ZM35.6176 15.812H34.3996V14.762H35.6176V13.684C35.6176 13.096 35.7856 12.6527 36.1216 12.354C36.4669 12.046 36.9662 11.892 37.6196 11.892C37.7316 11.892 37.8576 11.9013 37.9976 11.92C38.1469 11.9387 38.2776 11.9667 38.3896 12.004V13.04C38.2869 13.0027 38.1749 12.9793 38.0536 12.97C37.9322 12.9513 37.8202 12.942 37.7176 12.942C37.4282 12.942 37.2042 12.998 37.0456 13.11C36.8869 13.222 36.8076 13.4367 36.8076 13.754V14.762H38.2076V15.812H36.8076V22H35.6176V15.812ZM38.9481 14.762H40.0681V16.288H40.0961C40.3855 15.7 40.7401 15.266 41.1601 14.986C41.5801 14.706 42.1121 14.5753 42.7561 14.594V15.854C42.2801 15.854 41.8741 15.9193 41.5381 16.05C41.2021 16.1807 40.9315 16.372 40.7261 16.624C40.5208 16.876 40.3715 17.184 40.2781 17.548C40.1848 17.9027 40.1381 18.3133 40.1381 18.78V22H38.9481V14.762ZM43.9942 18.388C43.9942 18.8267 44.0502 19.2187 44.1622 19.564C44.2835 19.9 44.4468 20.1847 44.6522 20.418C44.8575 20.642 45.0955 20.8147 45.3662 20.936C45.6462 21.0573 45.9402 21.118 46.2482 21.118C46.5562 21.118 46.8455 21.0573 47.1162 20.936C47.3962 20.8147 47.6388 20.642 47.8442 20.418C48.0495 20.1847 48.2082 19.9 48.3202 19.564C48.4415 19.2187 48.5022 18.8267 48.5022 18.388C48.5022 17.9493 48.4415 17.562 48.3202 17.226C48.2082 16.8807 48.0495 16.5913 47.8442 16.358C47.6388 16.1247 47.3962 15.9473 47.1162 15.826C46.8455 15.7047 46.5562 15.644 46.2482 15.644C45.9402 15.644 45.6462 15.7047 45.3662 15.826C45.0955 15.9473 44.8575 16.1247 44.6522 16.358C44.4468 16.5913 44.2835 16.8807 44.1622 17.226C44.0502 17.562 43.9942 17.9493 43.9942 18.388ZM42.7342 18.388C42.7342 17.856 42.8088 17.3613 42.9582 16.904C43.1075 16.4373 43.3315 16.036 43.6302 15.7C43.9288 15.3547 44.2975 15.084 44.7362 14.888C45.1748 14.692 45.6788 14.594 46.2482 14.594C46.8268 14.594 47.3308 14.692 47.7602 14.888C48.1988 15.084 48.5675 15.3547 48.8662 15.7C49.1648 16.036 49.3888 16.4373 49.5382 16.904C49.6875 17.3613 49.7622 17.856 49.7622 18.388C49.7622 18.92 49.6875 19.4147 49.5382 19.872C49.3888 20.3293 49.1648 20.7307 48.8662 21.076C48.5675 21.412 48.1988 21.678 47.7602 21.874C47.3308 22.0607 46.8268 22.154 46.2482 22.154C45.6788 22.154 45.1748 22.0607 44.7362 21.874C44.2975 21.678 43.9288 21.412 43.6302 21.076C43.3315 20.7307 43.1075 20.3293 42.9582 19.872C42.8088 19.4147 42.7342 18.92 42.7342 18.388ZM50.8852 14.762H52.0052V15.826H52.0332C52.5746 15.0047 53.3539 14.594 54.3712 14.594C54.8192 14.594 55.2252 14.6873 55.5892 14.874C55.9532 15.0607 56.2099 15.378 56.3592 15.826C56.6019 15.434 56.9192 15.1307 57.3112 14.916C57.7126 14.7013 58.1512 14.594 58.6272 14.594C58.9912 14.594 59.3179 14.636 59.6072 14.72C59.9059 14.7947 60.1579 14.916 60.3632 15.084C60.5779 15.252 60.7412 15.4713 60.8532 15.742C60.9746 16.0033 61.0352 16.3207 61.0352 16.694V22H59.8452V17.254C59.8452 17.03 59.8266 16.82 59.7892 16.624C59.7519 16.428 59.6819 16.26 59.5792 16.12C59.4766 15.9707 59.3319 15.854 59.1452 15.77C58.9679 15.686 58.7346 15.644 58.4452 15.644C57.8572 15.644 57.3952 15.812 57.0592 16.148C56.7232 16.484 56.5552 16.932 56.5552 17.492V22H55.3652V17.254C55.3652 17.0207 55.3419 16.806 55.2952 16.61C55.2579 16.414 55.1879 16.246 55.0852 16.106C54.9826 15.9567 54.8426 15.8447 54.6652 15.77C54.4972 15.686 54.2779 15.644 54.0072 15.644C53.6619 15.644 53.3632 15.714 53.1112 15.854C52.8686 15.994 52.6679 16.162 52.5092 16.358C52.3599 16.554 52.2479 16.7593 52.1732 16.974C52.1079 17.1793 52.0752 17.352 52.0752 17.492V22H50.8852V14.762ZM68.3132 16.33C68.3599 16.3393 68.4019 16.344 68.4392 16.344C68.4859 16.344 68.5326 16.344 68.5792 16.344H68.8312C69.0832 16.344 69.3212 16.3113 69.5452 16.246C69.7786 16.1713 69.9792 16.0687 70.1472 15.938C70.3246 15.798 70.4646 15.6253 70.5672 15.42C70.6699 15.2147 70.7212 14.9813 70.7212 14.72C70.7212 14.188 70.5532 13.7913 70.2172 13.53C69.8812 13.2593 69.4612 13.124 68.9572 13.124C68.6399 13.124 68.3599 13.1847 68.1172 13.306C67.8839 13.418 67.6879 13.572 67.5292 13.768C67.3799 13.964 67.2679 14.1927 67.1932 14.454C67.1186 14.7153 67.0812 14.9907 67.0812 15.28H65.8912C65.9099 14.804 65.9846 14.37 66.1152 13.978C66.2552 13.586 66.4512 13.25 66.7032 12.97C66.9552 12.69 67.2679 12.4707 67.6412 12.312C68.0239 12.1533 68.4626 12.074 68.9572 12.074C69.3866 12.074 69.7832 12.13 70.1472 12.242C70.5206 12.3447 70.8426 12.5033 71.1132 12.718C71.3839 12.9327 71.5939 13.208 71.7432 13.544C71.9019 13.88 71.9812 14.2767 71.9812 14.734C71.9812 15.182 71.8506 15.5787 71.5892 15.924C71.3279 16.2693 71.0012 16.5307 70.6092 16.708V16.736C71.2159 16.8667 71.6639 17.1513 71.9532 17.59C72.2519 18.0287 72.4013 18.5467 72.4013 19.144C72.4013 19.6387 72.3079 20.0773 72.1212 20.46C71.9439 20.8333 71.7012 21.146 71.3932 21.398C71.0852 21.65 70.7212 21.8413 70.3012 21.972C69.8906 22.0933 69.4519 22.154 68.9852 22.154C68.4812 22.154 68.0239 22.084 67.6132 21.944C67.2026 21.804 66.8526 21.5987 66.5632 21.328C66.2739 21.048 66.0499 20.7073 65.8912 20.306C65.7419 19.9047 65.6719 19.4473 65.6812 18.934H66.8712C66.8899 19.578 67.0766 20.1053 67.4312 20.516C67.7859 20.9173 68.3039 21.118 68.9852 21.118C69.2746 21.118 69.5499 21.076 69.8112 20.992C70.0726 20.8987 70.3012 20.7727 70.4972 20.614C70.6932 20.446 70.8472 20.2453 70.9592 20.012C71.0806 19.7693 71.1412 19.4987 71.1412 19.2C71.1412 18.892 71.0852 18.6213 70.9732 18.388C70.8612 18.1453 70.7119 17.9447 70.5252 17.786C70.3386 17.618 70.1146 17.4967 69.8532 17.422C69.6012 17.338 69.3259 17.296 69.0272 17.296C68.7752 17.296 68.5372 17.31 68.3132 17.338V16.33ZM74.6085 17.114C74.6085 17.4873 74.6179 17.9073 74.6365 18.374C74.6645 18.8313 74.7392 19.2653 74.8605 19.676C74.9912 20.0773 75.1965 20.418 75.4765 20.698C75.7565 20.978 76.1485 21.118 76.6525 21.118C77.1565 21.118 77.5485 20.978 77.8285 20.698C78.1085 20.418 78.3092 20.0773 78.4305 19.676C78.5612 19.2653 78.6359 18.8313 78.6545 18.374C78.6825 17.9073 78.6965 17.4873 78.6965 17.114C78.6965 16.8713 78.6919 16.6053 78.6825 16.316C78.6825 16.0173 78.6592 15.7233 78.6125 15.434C78.5752 15.1353 78.5145 14.846 78.4305 14.566C78.3559 14.286 78.2392 14.0433 78.0805 13.838C77.9312 13.6233 77.7399 13.4507 77.5065 13.32C77.2732 13.1893 76.9885 13.124 76.6525 13.124C76.3165 13.124 76.0319 13.1893 75.7985 13.32C75.5652 13.4507 75.3692 13.6233 75.2105 13.838C75.0612 14.0433 74.9445 14.286 74.8605 14.566C74.7859 14.846 74.7252 15.1353 74.6785 15.434C74.6412 15.7233 74.6179 16.0173 74.6085 16.316C74.6085 16.6053 74.6085 16.8713 74.6085 17.114ZM73.3485 17.128C73.3485 16.764 73.3579 16.386 73.3765 15.994C73.3952 15.602 73.4419 15.2193 73.5165 14.846C73.5912 14.4727 73.6985 14.118 73.8385 13.782C73.9785 13.446 74.1699 13.152 74.4125 12.9C74.6552 12.648 74.9585 12.4473 75.3225 12.298C75.6959 12.1487 76.1392 12.074 76.6525 12.074C77.1659 12.074 77.6045 12.1487 77.9685 12.298C78.3419 12.4473 78.6499 12.648 78.8925 12.9C79.1352 13.152 79.3265 13.446 79.4665 13.782C79.6065 14.118 79.7139 14.4727 79.7885 14.846C79.8632 15.2193 79.9099 15.602 79.9285 15.994C79.9472 16.386 79.9565 16.764 79.9565 17.128C79.9565 17.492 79.9472 17.87 79.9285 18.262C79.9099 18.654 79.8632 19.0367 79.7885 19.41C79.7139 19.7833 79.6065 20.138 79.4665 20.474C79.3265 20.8007 79.1352 21.09 78.8925 21.342C78.6499 21.594 78.3465 21.7947 77.9825 21.944C77.6185 22.084 77.1752 22.154 76.6525 22.154C76.1392 22.154 75.6959 22.084 75.3225 21.944C74.9585 21.7947 74.6552 21.594 74.4125 21.342C74.1699 21.09 73.9785 20.8007 73.8385 20.474C73.6985 20.138 73.5912 19.7833 73.5165 19.41C73.4419 19.0367 73.3952 18.654 73.3765 18.262C73.3579 17.87 73.3485 17.492 73.3485 17.128ZM82.1078 17.114C82.1078 17.4873 82.1172 17.9073 82.1358 18.374C82.1638 18.8313 82.2385 19.2653 82.3598 19.676C82.4905 20.0773 82.6958 20.418 82.9758 20.698C83.2558 20.978 83.6478 21.118 84.1518 21.118C84.6558 21.118 85.0478 20.978 85.3278 20.698C85.6078 20.418 85.8085 20.0773 85.9298 19.676C86.0605 19.2653 86.1352 18.8313 86.1538 18.374C86.1818 17.9073 86.1958 17.4873 86.1958 17.114C86.1958 16.8713 86.1912 16.6053 86.1818 16.316C86.1818 16.0173 86.1585 15.7233 86.1118 15.434C86.0745 15.1353 86.0138 14.846 85.9298 14.566C85.8552 14.286 85.7385 14.0433 85.5798 13.838C85.4305 13.6233 85.2392 13.4507 85.0058 13.32C84.7725 13.1893 84.4878 13.124 84.1518 13.124C83.8158 13.124 83.5312 13.1893 83.2978 13.32C83.0645 13.4507 82.8685 13.6233 82.7098 13.838C82.5605 14.0433 82.4438 14.286 82.3598 14.566C82.2852 14.846 82.2245 15.1353 82.1778 15.434C82.1405 15.7233 82.1172 16.0173 82.1078 16.316C82.1078 16.6053 82.1078 16.8713 82.1078 17.114ZM80.8478 17.128C80.8478 16.764 80.8572 16.386 80.8758 15.994C80.8945 15.602 80.9412 15.2193 81.0158 14.846C81.0905 14.4727 81.1978 14.118 81.3378 13.782C81.4778 13.446 81.6692 13.152 81.9118 12.9C82.1545 12.648 82.4578 12.4473 82.8218 12.298C83.1952 12.1487 83.6385 12.074 84.1518 12.074C84.6652 12.074 85.1038 12.1487 85.4678 12.298C85.8412 12.4473 86.1492 12.648 86.3918 12.9C86.6345 13.152 86.8258 13.446 86.9658 13.782C87.1058 14.118 87.2132 14.4727 87.2878 14.846C87.3625 15.2193 87.4092 15.602 87.4278 15.994C87.4465 16.386 87.4558 16.764 87.4558 17.128C87.4558 17.492 87.4465 17.87 87.4278 18.262C87.4092 18.654 87.3625 19.0367 87.2878 19.41C87.2132 19.7833 87.1058 20.138 86.9658 20.474C86.8258 20.8007 86.6345 21.09 86.3918 21.342C86.1492 21.594 85.8458 21.7947 85.4818 21.944C85.1178 22.084 84.6745 22.154 84.1518 22.154C83.6385 22.154 83.1952 22.084 82.8218 21.944C82.4578 21.7947 82.1545 21.594 81.9118 21.342C81.6692 21.09 81.4778 20.8007 81.3378 20.474C81.1978 20.138 81.0905 19.7833 81.0158 19.41C80.9412 19.0367 80.8945 18.654 80.8758 18.262C80.8572 17.87 80.8478 17.492 80.8478 17.128ZM92.4351 17.982H95.4871V18.934H92.4351V22H91.4831V18.934H88.4311V17.982H91.4831V14.916H92.4351V17.982ZM100.344 14.762H101.464V16.288H101.492C101.781 15.7 102.136 15.266 102.556 14.986C102.976 14.706 103.508 14.5753 104.152 14.594V15.854C103.676 15.854 103.27 15.9193 102.934 16.05C102.598 16.1807 102.327 16.372 102.122 16.624C101.917 16.876 101.767 17.184 101.674 17.548C101.581 17.9027 101.534 18.3133 101.534 18.78V22H100.344V14.762ZM109.548 17.688C109.53 17.408 109.464 17.142 109.352 16.89C109.25 16.638 109.105 16.4233 108.918 16.246C108.741 16.0593 108.526 15.9147 108.274 15.812C108.032 15.7 107.761 15.644 107.462 15.644C107.154 15.644 106.874 15.7 106.622 15.812C106.38 15.9147 106.17 16.0593 105.992 16.246C105.815 16.4327 105.675 16.652 105.572 16.904C105.47 17.1467 105.409 17.408 105.39 17.688H109.548ZM110.696 19.704C110.538 20.516 110.188 21.1273 109.646 21.538C109.105 21.9487 108.424 22.154 107.602 22.154C107.024 22.154 106.52 22.0607 106.09 21.874C105.67 21.6873 105.316 21.426 105.026 21.09C104.737 20.754 104.518 20.3527 104.368 19.886C104.228 19.4193 104.149 18.9107 104.13 18.36C104.13 17.8093 104.214 17.3053 104.382 16.848C104.55 16.3907 104.784 15.994 105.082 15.658C105.39 15.322 105.75 15.0607 106.16 14.874C106.58 14.6873 107.038 14.594 107.532 14.594C108.176 14.594 108.708 14.7293 109.128 15C109.558 15.2613 109.898 15.5973 110.15 16.008C110.412 16.4187 110.589 16.8667 110.682 17.352C110.785 17.8373 110.827 18.2993 110.808 18.738H105.39C105.381 19.0553 105.418 19.3587 105.502 19.648C105.586 19.928 105.722 20.18 105.908 20.404C106.095 20.6187 106.333 20.7913 106.622 20.922C106.912 21.0527 107.252 21.118 107.644 21.118C108.148 21.118 108.559 21.0013 108.876 20.768C109.203 20.5347 109.418 20.18 109.52 19.704H110.696ZM115.024 22H113.75L111.062 14.762H112.392L114.422 20.796H114.45L116.424 14.762H117.67L115.024 22ZM119.742 13.46H118.552V12.004H119.742V13.46ZM118.552 14.762H119.742V22H118.552V14.762ZM126.331 17.688C126.313 17.408 126.247 17.142 126.135 16.89C126.033 16.638 125.888 16.4233 125.701 16.246C125.524 16.0593 125.309 15.9147 125.057 15.812C124.815 15.7 124.544 15.644 124.245 15.644C123.937 15.644 123.657 15.7 123.405 15.812C123.163 15.9147 122.953 16.0593 122.775 16.246C122.598 16.4327 122.458 16.652 122.355 16.904C122.253 17.1467 122.192 17.408 122.173 17.688H126.331ZM127.479 19.704C127.321 20.516 126.971 21.1273 126.429 21.538C125.888 21.9487 125.207 22.154 124.385 22.154C123.807 22.154 123.303 22.0607 122.873 21.874C122.453 21.6873 122.099 21.426 121.809 21.09C121.52 20.754 121.301 20.3527 121.151 19.886C121.011 19.4193 120.932 18.9107 120.913 18.36C120.913 17.8093 120.997 17.3053 121.165 16.848C121.333 16.3907 121.567 15.994 121.865 15.658C122.173 15.322 122.533 15.0607 122.943 14.874C123.363 14.6873 123.821 14.594 124.315 14.594C124.959 14.594 125.491 14.7293 125.911 15C126.341 15.2613 126.681 15.5973 126.933 16.008C127.195 16.4187 127.372 16.8667 127.465 17.352C127.568 17.8373 127.61 18.2993 127.591 18.738H122.173C122.164 19.0553 122.201 19.3587 122.285 19.648C122.369 19.928 122.505 20.18 122.691 20.404C122.878 20.6187 123.116 20.7913 123.405 20.922C123.695 21.0527 124.035 21.118 124.427 21.118C124.931 21.118 125.342 21.0013 125.659 20.768C125.986 20.5347 126.201 20.18 126.303 19.704H127.479ZM135.713 22H134.453L132.983 16.246H132.955L131.499 22H130.211L127.887 14.762H129.203L130.841 20.684H130.869L132.325 14.762H133.627L135.139 20.684H135.167L136.791 14.762H138.023L135.713 22ZM139.602 19.718C139.611 19.9793 139.672 20.2033 139.784 20.39C139.896 20.5673 140.041 20.712 140.218 20.824C140.405 20.9267 140.61 21.0013 140.834 21.048C141.067 21.0947 141.305 21.118 141.548 21.118C141.735 21.118 141.931 21.104 142.136 21.076C142.341 21.048 142.528 20.9967 142.696 20.922C142.873 20.8473 143.018 20.74 143.13 20.6C143.242 20.4507 143.298 20.264 143.298 20.04C143.298 19.732 143.181 19.4987 142.948 19.34C142.715 19.1813 142.421 19.0553 142.066 18.962C141.721 18.8593 141.343 18.7707 140.932 18.696C140.521 18.612 140.139 18.5 139.784 18.36C139.439 18.2107 139.149 18.0053 138.916 17.744C138.683 17.4827 138.566 17.1187 138.566 16.652C138.566 16.288 138.645 15.9753 138.804 15.714C138.972 15.4527 139.182 15.2427 139.434 15.084C139.695 14.916 139.985 14.7947 140.302 14.72C140.629 14.636 140.951 14.594 141.268 14.594C141.679 14.594 142.057 14.6313 142.402 14.706C142.747 14.7713 143.051 14.8927 143.312 15.07C143.583 15.238 143.797 15.4713 143.956 15.77C144.115 16.0593 144.208 16.4233 144.236 16.862H143.046C143.027 16.6287 142.967 16.4373 142.864 16.288C142.761 16.1293 142.631 16.0033 142.472 15.91C142.313 15.8167 142.136 15.7513 141.94 15.714C141.753 15.6673 141.562 15.644 141.366 15.644C141.189 15.644 141.007 15.658 140.82 15.686C140.643 15.714 140.479 15.7653 140.33 15.84C140.181 15.9053 140.059 15.9987 139.966 16.12C139.873 16.232 139.826 16.3813 139.826 16.568C139.826 16.7733 139.896 16.946 140.036 17.086C140.185 17.2167 140.372 17.3287 140.596 17.422C140.82 17.506 141.072 17.5807 141.352 17.646C141.632 17.702 141.912 17.7627 142.192 17.828C142.491 17.8933 142.78 17.9727 143.06 18.066C143.349 18.1593 143.601 18.2853 143.816 18.444C144.04 18.5933 144.217 18.7847 144.348 19.018C144.488 19.2513 144.558 19.5407 144.558 19.886C144.558 20.3247 144.465 20.6887 144.278 20.978C144.101 21.2673 143.863 21.5007 143.564 21.678C143.275 21.8553 142.943 21.9767 142.57 22.042C142.206 22.1167 141.842 22.154 141.478 22.154C141.077 22.154 140.694 22.112 140.33 22.028C139.966 21.944 139.644 21.8087 139.364 21.622C139.084 21.426 138.86 21.174 138.692 20.866C138.524 20.5487 138.431 20.166 138.412 19.718H139.602Z" fill="#C9CBD2"/>
<path d="M27.0007 34.1557C27.0007 33.5802 26.953 33.1602 26.8499 32.7246H20.1436V35.3224H24.08C24.0007 35.9679 23.5721 36.9402 22.6197 37.5935L22.6064 37.6804L24.7268 39.2902L24.8737 39.3046C26.2229 38.0835 27.0007 36.2868 27.0007 34.1557Z" fill="#4285F4"/>
<path d="M20.1432 41.0004C22.0717 41.0004 23.6907 40.3781 24.8733 39.3048L22.6193 37.5936C22.0162 38.0059 21.2066 38.2936 20.1432 38.2936C18.2543 38.2936 16.6511 37.0726 16.0796 35.3848L15.9959 35.3917L13.791 37.064L13.7622 37.1425C14.9368 39.4292 17.3495 41.0004 20.1432 41.0004Z" fill="#328F03"/>
<path d="M16.0801 35.385C15.9293 34.9494 15.842 34.4827 15.842 34.0005C15.842 33.5183 15.9293 33.0516 16.0721 32.6161L16.0681 32.5233L13.8357 30.8242L13.7626 30.8583C13.2785 31.8072 13.0007 32.8727 13.0007 34.0005C13.0007 35.1283 13.2785 36.1938 13.7626 37.1427L16.0801 35.385Z" fill="#FBBC05"/>
<path d="M20.1432 29.7066C21.4844 29.7066 22.3892 30.2744 22.9051 30.7489L24.9209 28.82C23.6829 27.6922 22.0717 27 20.1432 27C17.3495 27 14.9368 28.5711 13.7622 30.8577L16.0717 32.6155C16.6511 30.9278 18.2543 29.7066 20.1432 29.7066Z" fill="#EB4335"/>
<path d="M38.0825 29.1157C38.4307 28.3129 39.5693 28.3129 39.9175 29.1157L40.666 30.842C40.8109 31.1761 41.126 31.4051 41.4886 31.4396L43.3617 31.6181C44.2329 31.7011 44.5847 32.784 43.9287 33.3632L42.5183 34.6086C42.2453 34.8497 42.1249 35.2201 42.2041 35.5756L42.6131 37.4122C42.8034 38.2664 41.8822 38.9356 41.1287 38.4907L39.5084 37.5341C39.1948 37.349 38.8052 37.349 38.4916 37.5341L36.8713 38.4907C36.1177 38.9356 35.1966 38.2664 35.3869 37.4122L35.7959 35.5756C35.8751 35.2201 35.7547 34.8497 35.4817 34.6086L34.0713 33.3632C33.4153 32.784 33.7671 31.7011 34.6383 31.6181L36.5114 31.4396C36.874 31.4051 37.1891 31.1761 37.334 30.842L38.0825 29.1157Z" fill="#FCAF02"/>
<path d="M52.0825 29.1157C52.4307 28.3129 53.5693 28.3129 53.9175 29.1157L54.666 30.842C54.8109 31.1761 55.126 31.4051 55.4886 31.4396L57.3617 31.6181C58.2329 31.7011 58.5847 32.784 57.9287 33.3632L56.5183 34.6086C56.2453 34.8497 56.1249 35.2201 56.2041 35.5756L56.6131 37.4122C56.8034 38.2664 55.8822 38.9356 55.1287 38.4907L53.5084 37.5341C53.1948 37.349 52.8052 37.349 52.4916 37.5341L50.8713 38.4907C50.1177 38.9356 49.1966 38.2664 49.3869 37.4122L49.7959 35.5756C49.8751 35.2201 49.7547 34.8497 49.4817 34.6086L48.0713 33.3632C47.4153 32.784 47.7671 31.7011 48.6383 31.6181L50.5114 31.4396C50.874 31.4051 51.1891 31.1761 51.334 30.842L52.0825 29.1157Z" fill="#FCAF02"/>
<path d="M66.0825 29.1157C66.4307 28.3129 67.5693 28.3129 67.9175 29.1157L68.666 30.842C68.8109 31.1761 69.126 31.4051 69.4886 31.4396L71.3617 31.6181C72.2329 31.7011 72.5847 32.784 71.9287 33.3632L70.5183 34.6086C70.2453 34.8497 70.1249 35.2201 70.2041 35.5756L70.6131 37.4122C70.8034 38.2664 69.8822 38.9356 69.1287 38.4907L67.5084 37.5341C67.1948 37.349 66.8052 37.349 66.4916 37.5341L64.8713 38.4907C64.1177 38.9356 63.1966 38.2664 63.3869 37.4122L63.7959 35.5756C63.8751 35.2201 63.7547 34.8497 63.4817 34.6086L62.0713 33.3632C61.4153 32.784 61.7671 31.7011 62.6383 31.6181L64.5114 31.4396C64.874 31.4051 65.1891 31.1761 65.334 30.842L66.0825 29.1157Z" fill="#FCAF02"/>
<path d="M80.0825 29.1157C80.4307 28.3129 81.5693 28.3129 81.9175 29.1157L82.666 30.842C82.8109 31.1761 83.126 31.4051 83.4886 31.4396L85.3617 31.6181C86.2329 31.7011 86.5847 32.784 85.9287 33.3632L84.5183 34.6086C84.2453 34.8497 84.1249 35.2201 84.2041 35.5756L84.6131 37.4122C84.8034 38.2664 83.8822 38.9356 83.1287 38.4907L81.5084 37.5341C81.1948 37.349 80.8052 37.349 80.4916 37.5341L78.8713 38.4907C78.1177 38.9356 77.1966 38.2664 77.3869 37.4122L77.7959 35.5756C77.8751 35.2201 77.7547 34.8497 77.4817 34.6086L76.0713 33.3632C75.4153 32.784 75.7671 31.7011 76.6383 31.6181L78.5114 31.4396C78.874 31.4051 79.1891 31.1761 79.334 30.842L80.0825 29.1157Z" fill="#FCAF02"/>
<path d="M94.0825 29.1157C94.4307 28.3129 95.5693 28.3129 95.9175 29.1157L96.666 30.842C96.8109 31.1761 97.126 31.4051 97.4886 31.4396L99.3617 31.6181C100.233 31.7011 100.585 32.784 99.9287 33.3632L98.5183 34.6086C98.2453 34.8497 98.1249 35.2201 98.2041 35.5756L98.6131 37.4122C98.8034 38.2664 97.8822 38.9356 97.1287 38.4907L95.5084 37.5341C95.1948 37.349 94.8052 37.349 94.4916 37.5341L92.8713 38.4907C92.1177 38.9356 91.1966 38.2664 91.3869 37.4122L91.7959 35.5756C91.8751 35.2201 91.7547 34.8497 91.4817 34.6086L90.0713 33.3632C89.4153 32.784 89.7671 31.7011 90.6383 31.6181L92.5114 31.4396C92.874 31.4051 93.1891 31.1761 93.334 30.842L94.0825 29.1157Z" fill="#FCAF02"/>
</svg>
