<svg width="64" height="64" viewBox="0 0 64 64" fill="none" xmlns="http://www.w3.org/2000/svg">
<rect width="64" height="64" rx="32" fill="url(#paint0_linear_243_1042)"/>
<path d="M16 48L18.2493 39.7827C16.8613 37.3773 16.132 34.6507 16.1333 31.8547C16.1373 23.1133 23.2507 16 31.9906 16C36.232 16.0013 40.2133 17.6533 43.2079 20.6507C46.2013 23.648 47.8493 27.632 47.8479 31.8693C47.8439 40.612 40.7306 47.7253 31.9906 47.7253C29.3373 47.724 26.7226 47.0587 24.4066 45.7947L16 48ZM24.796 42.924C27.0306 44.2507 29.164 45.0453 31.9853 45.0467C39.2493 45.0467 45.1666 39.1347 45.1706 31.8667C45.1733 24.584 39.2839 18.68 31.996 18.6773C24.7266 18.6773 18.8133 24.5893 18.8107 31.856C18.8093 34.8227 19.6787 37.044 21.1387 39.368L19.8067 44.232L24.796 42.924ZM39.9786 35.6387C39.8799 35.4733 39.6159 35.3747 39.2186 35.176C38.8226 34.9773 36.8746 34.0187 36.5106 33.8867C36.148 33.7547 35.884 33.688 35.6186 34.0853C35.3546 34.4813 34.5946 35.3747 34.364 35.6387C34.1333 35.9027 33.9013 35.936 33.5053 35.7373C33.1093 35.5387 31.832 35.1213 30.3186 33.7707C29.1413 32.72 28.3453 31.4227 28.1146 31.0253C27.884 30.6293 28.0906 30.4147 28.288 30.2173C28.4666 30.04 28.684 29.7547 28.8826 29.5227C29.084 29.2933 29.1493 29.128 29.2826 28.8627C29.4146 28.5987 29.3493 28.3667 29.2493 28.168C29.1493 27.9707 28.3573 26.02 28.028 25.2267C27.7053 24.4547 27.3786 24.5587 27.136 24.5467L26.376 24.5333C26.112 24.5333 25.6826 24.632 25.32 25.0293C24.9573 25.4267 23.9333 26.384 23.9333 28.3347C23.9333 30.2853 25.3533 32.1693 25.5506 32.4333C25.7493 32.6973 28.344 36.7 32.3186 38.416C33.264 38.824 34.0026 39.068 34.5773 39.2507C35.5266 39.552 36.3906 39.5093 37.0733 39.408C37.8346 39.2947 39.4173 38.4493 39.7479 37.524C40.0786 36.5973 40.0786 35.804 39.9786 35.6387Z" fill="#FDFFFC"/>
<defs>
<linearGradient id="paint0_linear_243_1042" x1="8.14545" y1="10.4727" x2="98.3273" y2="115.2" gradientUnits="userSpaceOnUse">
<stop offset="0.0862265" stop-color="#25D366"/>
<stop offset="0.902565" stop-color="#136D35"/>
</linearGradient>
</defs>
</svg>
