<svg width="41" height="41" viewBox="0 0 41 41" fill="none" xmlns="http://www.w3.org/2000/svg">
<path d="M29.416 3.83268C29.416 2.91222 30.1622 2.16602 31.0827 2.16602H37.3327C38.2532 2.16602 38.9993 2.91222 38.9993 3.83268V12.166C38.9993 13.0865 38.2532 13.8327 37.3327 13.8327H35.666V37.5827C35.666 38.273 35.1063 38.8327 34.416 38.8327C33.7257 38.8327 33.166 38.273 33.166 37.5827V13.8327H31.0827C30.1622 13.8327 29.416 13.0865 29.416 12.166V3.83268ZM26.9982 5.49935C27.2523 5.49935 27.5032 5.51703 27.7493 5.55137V8.09743C27.5085 8.0333 27.2567 7.99935 26.9982 7.99935H14.3359C12.9975 7.99935 11.8309 8.91022 11.5063 10.2086L10.1836 15.4993H31.4993V17.9993H9.41602C8.72567 17.9993 8.16602 18.559 8.16602 19.2493V28.8327H31.4993V31.3327H29.831L29.8327 33.4107C29.8327 33.6407 30.0192 33.8273 30.2493 33.8273H31.4993V36.3274H30.2493C28.6385 36.3274 27.3327 35.0215 27.3327 33.4107L27.331 31.3327H14.006L14.0061 33.4107C14.0061 35.0215 12.7003 36.3274 11.0895 36.3274H8.58268C6.97185 36.3274 5.66602 35.0215 5.66602 33.4107V19.2493C5.66602 17.8913 6.38795 16.7018 7.46897 16.0438L7.81435 14.666H6.91602C6.28318 14.666 5.7602 14.1958 5.67743 13.5856L5.66602 13.416C5.66602 12.7832 6.13627 12.2602 6.7464 12.1774L6.91602 12.166H8.43768L9.08098 9.60228C9.68382 7.19097 11.8504 5.49935 14.3359 5.49935H26.9982ZM11.506 31.3327H8.16435L8.16602 33.4107C8.16602 33.6407 8.35257 33.8273 8.58268 33.8273H11.0895C11.3196 33.8273 11.5061 33.6407 11.5061 33.4107L11.506 31.3327ZM17.7477 23.8327H23.5838C24.2743 23.8327 24.8338 24.3923 24.8338 25.0827C24.8338 25.7155 24.3637 26.2385 23.7535 26.3214L23.5838 26.3327H17.7477C17.0573 26.3327 16.4977 25.773 16.4977 25.0827C16.4977 24.4499 16.9679 23.9268 17.578 23.844L17.7477 23.8327ZM28.9993 20.4993C29.9197 20.4993 30.6658 21.2455 30.6658 22.166C30.6658 23.0863 29.9197 23.8325 28.9993 23.8325C28.0788 23.8325 27.3327 23.0863 27.3327 22.166C27.3327 21.2455 28.0788 20.4993 28.9993 20.4993ZM12.3326 20.4993C13.2531 20.4993 13.9993 21.2455 13.9993 22.166C13.9993 23.0863 13.2531 23.8325 12.3326 23.8325C11.4122 23.8325 10.666 23.0863 10.666 22.166C10.666 21.2455 11.4122 20.4993 12.3326 20.4993Z" fill="#002422"/>
</svg>
