<svg width="41" height="41" viewBox="0 0 41 41" fill="none" xmlns="http://www.w3.org/2000/svg">
<path d="M33.1343 7C32.3386 7 31.5756 7.38901 31.013 8.08145C30.4503 8.77389 30.1343 9.71305 30.1343 10.6923V31" stroke="#002422" stroke-width="2" stroke-linecap="round" stroke-linejoin="round"/>
<path d="M2.13428 31.5C3.24428 32.25 4.35428 33 6.75928 33C11.3843 33 11.3843 30 16.0093 30C20.8193 30 20.4493 33 25.2593 33C29.8843 33 29.8843 30 34.5093 30C36.9143 30 38.0243 30.75 39.1343 31.5" stroke="#002422" stroke-width="2" stroke-linecap="round" stroke-linejoin="round"/>
<path d="M11.1343 22H30.1343" stroke="#002422" stroke-width="2" stroke-linecap="round" stroke-linejoin="round"/>
<path d="M11.1343 15H30.1343" stroke="#002422" stroke-width="2" stroke-linecap="round" stroke-linejoin="round"/>
<path d="M15.1343 7C14.0734 7 13.056 7.38901 12.3059 8.08145C11.5557 8.77389 11.1343 9.71305 11.1343 10.6923V31" stroke="#002422" stroke-width="2" stroke-linecap="round" stroke-linejoin="round"/>
</svg>
