<svg width="40" height="41" viewBox="0 0 40 41" fill="none" xmlns="http://www.w3.org/2000/svg">
<path d="M18.3334 33.834C15.4068 33.8428 12.5838 32.7515 10.4242 30.7763C8.26468 28.8012 6.92632 26.0866 6.67461 23.1708C6.42289 20.2551 7.2762 17.3513 9.0653 15.0352C10.8544 12.7192 13.4486 11.1602 16.3334 10.6673C25.8334 8.83398 28.3334 7.96732 31.6667 3.83398C33.3334 7.16732 35 10.8007 35 17.1673C35 26.334 27.0334 33.834 18.3334 33.834Z" stroke="#002422" stroke-width="2" stroke-linecap="round" stroke-linejoin="round"/>
<path d="M3.3335 35.5C3.3335 30.5 6.41683 26.5667 11.8002 25.5C15.8335 24.7 20.0002 22.1667 21.6668 20.5" stroke="#002422" stroke-width="2" stroke-linecap="round" stroke-linejoin="round"/>
</svg>
