<svg width="40" height="41" viewBox="0 0 40 41" fill="none" xmlns="http://www.w3.org/2000/svg">
<path d="M3.33301 20.5H36.6663" stroke="#002422" stroke-width="2" stroke-linecap="round" stroke-linejoin="round"/>
<path d="M33.3337 20.5V33.8333C33.3337 34.7174 32.9825 35.5652 32.3573 36.1904C31.7322 36.8155 30.8844 37.1667 30.0003 37.1667H10.0003C9.11627 37.1667 8.26842 36.8155 7.6433 36.1904C7.01818 35.5652 6.66699 34.7174 6.66699 33.8333V20.5" stroke="#002422" stroke-width="2" stroke-linecap="round" stroke-linejoin="round"/>
<path d="M6.66699 13.8327L33.3337 7.16602" stroke="#002422" stroke-width="2" stroke-linecap="round" stroke-linejoin="round"/>
<path d="M14.7669 11.7996L14.0169 8.78292C13.9095 8.3583 13.8867 7.91668 13.9501 7.48328C14.0134 7.04988 14.1615 6.63321 14.3859 6.25708C14.6104 5.88095 14.9067 5.55275 15.2581 5.29122C15.6094 5.0297 16.0089 4.83998 16.4336 4.73292L19.6669 3.93292C20.0926 3.82572 20.5354 3.80369 20.9696 3.86807C21.4039 3.93246 21.8212 4.08199 22.1975 4.30809C22.5738 4.53419 22.9018 4.83241 23.1625 5.18561C23.4233 5.53881 23.6117 5.94003 23.7169 6.36625L24.4669 9.36625" stroke="#002422" stroke-width="2" stroke-linecap="round" stroke-linejoin="round"/>
</svg>
