<svg width="41" height="41" viewBox="0 0 41 41" fill="none" xmlns="http://www.w3.org/2000/svg">
<path d="M30.3334 8.83398C31.2175 8.83398 32.0653 9.18517 32.6905 9.81029C33.3156 10.4354 33.6668 11.2833 33.6668 12.1673V26.3773C33.6666 26.8964 33.7875 27.4083 34.0201 27.8723L35.8001 31.4173C35.9286 31.6723 35.9894 31.956 35.9768 32.2413C35.9641 32.5265 35.8784 32.8037 35.7278 33.0463C35.5772 33.2889 35.3669 33.4887 35.1169 33.6267C34.8669 33.7646 34.5856 33.836 34.3001 33.834H6.36678C6.08127 33.836 5.80002 33.7646 5.55002 33.6267C5.30002 33.4887 5.08965 33.2889 4.93908 33.0463C4.7885 32.8037 4.70277 32.5265 4.69012 32.2413C4.67746 31.956 4.73829 31.6723 4.86678 31.4173L6.64678 27.8723C6.87935 27.4083 7.00034 26.8964 7.00012 26.3773V12.1673C7.00012 11.2833 7.35131 10.4354 7.97643 9.81029C8.60155 9.18517 9.44939 8.83398 10.3334 8.83398H30.3334Z" stroke="#002422" stroke-width="2" stroke-linecap="round" stroke-linejoin="round"/>
<path d="M33.7568 27.1445H6.91016" stroke="#002422" stroke-width="2" stroke-linecap="round" stroke-linejoin="round"/>
</svg>
