<svg width="41" height="41" viewBox="0 0 41 41" fill="none" xmlns="http://www.w3.org/2000/svg">
<path d="M12.3335 35.5H29.0002" stroke="#002422" stroke-width="2" stroke-linecap="round" stroke-linejoin="round"/>
<path d="M20.667 35.5C24.6452 35.5 28.4605 33.9196 31.2736 31.1066C34.0866 28.2936 35.667 24.4782 35.667 20.5H5.66699C5.66699 24.4782 7.24734 28.2936 10.0604 31.1066C12.8734 33.9196 16.6887 35.5 20.667 35.5Z" stroke="#002422" stroke-width="2" stroke-linecap="round" stroke-linejoin="round"/>
<path d="M19.634 20.4991C18.6246 20.5085 17.6489 20.136 16.9028 19.4561C16.1566 18.7763 15.695 17.8395 15.6107 16.8336C15.5263 15.8277 15.8254 14.8271 16.4479 14.0324C17.0705 13.2378 17.9704 12.708 18.9673 12.5491C18.8077 11.8428 18.8428 11.1065 19.0689 10.4186C19.295 9.73069 19.7035 9.11706 20.251 8.64315C20.7985 8.16924 21.4643 7.85283 22.1775 7.72767C22.8907 7.60251 23.6245 7.67329 24.3006 7.93247C24.5967 7.46641 24.986 7.06668 25.4441 6.75847C25.9023 6.45025 26.4192 6.24021 26.9625 6.14158C27.5057 6.04295 28.0635 6.05785 28.6008 6.18536C29.138 6.31287 29.643 6.55022 30.084 6.88247C30.8532 6.27784 31.8174 5.97614 32.7942 6.03446C33.7709 6.09277 34.6923 6.50706 35.3842 7.19892C36.076 7.89079 36.4903 8.81224 36.5486 9.78895C36.607 10.7657 36.3053 11.7299 35.7006 12.4991C36.077 12.999 36.3308 13.5802 36.4417 14.196C36.5526 14.8118 36.5174 15.4451 36.3391 16.0448C36.1608 16.6446 35.8443 17.1941 35.415 17.6494C34.9857 18.1046 34.4556 18.4527 33.8673 18.6658C34.0194 19.2657 34.0364 19.8918 33.9173 20.4991" stroke="#002422" stroke-width="2" stroke-linecap="round" stroke-linejoin="round"/>
<path d="M22.334 20.5007L29.0007 13.834" stroke="#002422" stroke-width="2" stroke-linecap="round" stroke-linejoin="round"/>
<path d="M18.8336 12.5828C17.9194 11.6082 16.7328 10.9317 15.4285 10.6413C14.1242 10.351 12.7627 10.4603 11.5215 10.955C10.2802 11.4497 9.21675 12.3069 8.46974 13.4148C7.72273 14.5227 7.32681 15.8299 7.33358 17.1661C7.33358 18.3828 7.66691 19.5161 8.23358 20.4995" stroke="#002422" stroke-width="2" stroke-linecap="round" stroke-linejoin="round"/>
</svg>
